<?xml version="1.0" encoding="utf-8"?>
<!-- Generator: Adobe Illustrator 27.3.1, SVG Export Plug-In . SVG Version: 6.00 Build 0)  -->
<svg version="1.1" id="Layer_1" xmlns="http://www.w3.org/2000/svg" xmlns:xlink="http://www.w3.org/1999/xlink" x="0px" y="0px"
	 viewBox="0 0 200 200" style="enable-background:new 0 0 200 200;" xml:space="preserve">
<style type="text/css">
	.st0{fill:#6B0900;stroke:#D8AA79;stroke-width:1.0447;stroke-miterlimit:10;}
	.st1{fill:#400300;}
	.st2{fill:url(#SVGID_1_);}
	.st3{fill:url(#SVGID_00000155840776722263319750000016935713074972807834_);}
	.st4{fill:url(#SVGID_00000071528655110639456000000009597129828899770303_);}
	.st5{fill:url(#SVGID_00000183240215268184998850000008233075836642372491_);}
	.st6{fill:url(#SVGID_00000151504318539357095720000013957219975771043995_);}
	.st7{fill:url(#SVGID_00000080903115273556314650000012859376832241325502_);}
	.st8{fill:url(#SVGID_00000089550664258409941850000011898554080587313045_);}
	.st9{fill:url(#SVGID_00000087378104043848135470000017911193553438187191_);}
	.st10{fill:url(#SVGID_00000011725608138773012170000013918065663993315234_);}
	.st11{fill:url(#SVGID_00000168110373967094897830000001467589387048665516_);}
	.st12{fill:url(#SVGID_00000069385986703899806180000005660032700353346748_);}
	.st13{fill:url(#SVGID_00000102534777399962250230000012423714212594495110_);}
	.st14{fill:url(#SVGID_00000085225362289429202390000007931164875016485025_);}
	.st15{fill:url(#SVGID_00000011741216670236500060000015971471609067802289_);}
	.st16{fill:url(#SVGID_00000034072284627950437480000017042623662833969812_);}
	.st17{fill:url(#SVGID_00000166673829609898241050000003194586066740956033_);}
	.st18{fill:url(#SVGID_00000174584841905371252590000009116177628376027322_);}
	.st19{fill:url(#SVGID_00000010289489084816200430000010485434152142221449_);}
	.st20{fill:url(#SVGID_00000150817372366485382220000006782819804161749376_);}
	.st21{fill:none;stroke:#FFFFFF;stroke-width:0.5145;stroke-miterlimit:10;}
	.st22{fill:#FFFFFF;}
	.st23{fill:#A8A8A8;}
	.st24{fill:url(#SVGID_00000112616297681388199890000013091299892118508177_);}
	.st25{fill:none;stroke:#F9A326;stroke-width:2.2653;stroke-linecap:round;stroke-linejoin:round;stroke-miterlimit:10;}
	.st26{fill:url(#SVGID_00000044860860680219220220000002432095456314506405_);}
	.st27{fill:url(#SVGID_00000026158825824367696630000016596786133185007292_);}
	.st28{fill:#F9EC3E;}
	.st29{fill:#F3C345;}
	.st30{fill:#744818;}
	.st31{fill:#DDE02C;}
	.st32{fill:#9ACB50;}
	.st33{fill:#FFD052;}
	.st34{fill:#F8A226;}
	.st35{fill:#DD7A26;}
	.st36{fill:#F9A64F;}
	.st37{fill:url(#SVGID_00000004542295440201004580000014594915364557751169_);}
</style>
<g>
	<path class="st0" d="M123.1,56.9l-0.5,8.7l-4.8-6.5c2-1.2,3.9-2.8,5.4-4.6l0.9-1l0-17.7l-0.2-5.9c-3.6-3.5-8.9-5.2-14.2-4.4
		c-5.6,0.8-10.5,4-13.9,8.2l0.3-5.8l-14.7,2.2l-0.3,4.7c-2.3-2.5-6-3.8-10.3-3.1l-17,2.5l-2,33.2L47.5,68l8,34.3l12.6-1.9l3.7-9.7
		l2.5,8.7L87,97.7l4.5-13.8l-0.8,13.2l26.6-3.9l0.6-8.7l5.7,7.8l12.1-1.8l2.1-35.8L123.1,56.9z"/>
	<g>
		<g>
			<g>
				<path d="M57.5,40l13.9-2c4.3-0.6,7.6,1.4,8.1,4.8c0.4,3.1-1.2,6-4,7.8c2.3,0.7,4.1,2.7,4.5,5.1c0.7,5.1-3.7,9-9.2,9.8l-14.8,2.2
					L57.5,40z M69.5,59.9c2.5-0.4,4.1-2.2,3.8-4.2c-0.2-1.2-1.2-1.7-3.1-1.4l-7,1l-0.3,5.6L69.5,59.9z M69.1,49.2
					c2.3-0.3,3.9-2,3.6-4c-0.2-1.1-1.1-1.5-2.9-1.2l-6,0.9L63.6,50L69.1,49.2z"/>
				<path d="M85.1,36l6.7-1l-1.7,27.7l-6.7,1L85.1,36z"/>
				<path d="M108.6,44.4l12.3-1.8l-0.7,11.6c-2.9,3.3-7,5.5-10.9,6.1c-7.1,1-13.1-3.4-14.1-9.9c-1.3-8.7,6.3-17.4,15-18.6
					c4.3-0.6,8.3,0.7,10.9,3.3l-4.9,4.8c-1.3-1.6-3.5-2.2-5.6-1.9c-5.2,0.8-9.3,6.4-8.6,11.3c0.5,3.3,3.4,5.5,6.9,5
					c1.8-0.3,3.6-1.2,5-2.5l0.2-2.9l-5.7,0.8L108.6,44.4z"/>
			</g>
			<g>
				<path class="st1" d="M57.5,40l13.9-2c4.3-0.6,7.6,1.4,8.1,4.8c0.4,3.1-1.2,6-4,7.8c2.3,0.7,4.1,2.7,4.5,5.1
					c0.7,5.1-3.7,9-9.2,9.8l-14.8,2.2L57.5,40z M69.5,59.9c2.5-0.4,4.1-2.2,3.8-4.2c-0.2-1.2-1.2-1.7-3.1-1.4l-7,1l-0.3,5.6
					L69.5,59.9z M69.1,49.2c2.3-0.3,3.9-2,3.6-4c-0.2-1.1-1.1-1.5-2.9-1.2l-6,0.9L63.6,50L69.1,49.2z"/>
				<path class="st1" d="M85.1,36l6.7-1l-1.7,27.7l-6.7,1L85.1,36z"/>
				<path class="st1" d="M108.6,44.4l12.3-1.8l-0.7,11.6c-2.9,3.3-7,5.5-10.9,6.1c-7.1,1-13.1-3.4-14.1-9.9
					c-1.3-8.7,6.3-17.4,15-18.6c4.3-0.6,8.3,0.7,10.9,3.3l-4.9,4.8c-1.3-1.6-3.5-2.2-5.6-1.9c-5.2,0.8-9.3,6.4-8.6,11.3
					c0.5,3.3,3.4,5.5,6.9,5c1.8-0.3,3.6-1.2,5-2.5l0.2-2.9l-5.7,0.8L108.6,44.4z"/>
			</g>
		</g>
		<g>
			<g>
				<path d="M52.3,73.7l7.1-1l3.1,16.7l6.7-18.1l7.2-1.1l4.5,16.5L86,68.7l7.3-1.1l-9.4,28.9l-6.7,1l-4.8-16.7l-7.1,18.4l-6.7,1
					L52.3,73.7z"/>
				<path d="M96.5,67.2l6.7-1l-1.7,27.7l-6.7,1L96.5,67.2z"/>
				<path d="M108.4,65.4l6.6-1l10.7,14.7l1-16.4l6.7-1l-1.7,27.7l-6.6,1l-10.8-14.7l-1,16.4l-6.7,1L108.4,65.4z"/>
			</g>
			<g>
				<path class="st1" d="M52.3,73.7l7.1-1l3.1,16.7l6.7-18.1l7.2-1.1l4.5,16.5L86,68.7l7.3-1.1l-9.4,28.9l-6.7,1l-4.8-16.7
					l-7.1,18.4l-6.7,1L52.3,73.7z"/>
				<path class="st1" d="M96.5,67.2l6.7-1l-1.7,27.7l-6.7,1L96.5,67.2z"/>
				<path class="st1" d="M108.4,65.4l6.6-1l10.7,14.7l1-16.4l6.7-1l-1.7,27.7l-6.6,1l-10.8-14.7l-1,16.4l-6.7,1L108.4,65.4z"/>
			</g>
		</g>
	</g>
	<g>
		<g>
			<path d="M52.4,71.3l7.1-1l3.1,16.7l6.7-18.1l7.2-1.1l4.5,16.5l5.2-17.9l7.3-1.1L84,94.1l-6.7,1l-4.8-16.7l-7.1,18.4l-6.7,1
				L52.4,71.3z"/>
			<path d="M96.6,64.8l6.7-1l-1.7,27.7l-6.7,1L96.6,64.8z"/>
			<path d="M108.5,63l6.6-1l10.7,14.7l1-16.4l6.7-1l-1.7,27.7l-6.6,1l-10.8-14.7l-1,16.4l-6.7,1L108.5,63z"/>
		</g>
		<g>
			<linearGradient id="SVGID_1_" gradientUnits="userSpaceOnUse" x1="92.9761" y1="94.0277" x2="92.9761" y2="60.6524">
				<stop  offset="0" style="stop-color:#E3AB36"/>
				<stop  offset="3.336607e-02" style="stop-color:#D99931"/>
				<stop  offset="9.927555e-02" style="stop-color:#C87A28"/>
				<stop  offset="0.1553" style="stop-color:#BE6723"/>
				<stop  offset="0.1943" style="stop-color:#BA6021"/>
				<stop  offset="0.2326" style="stop-color:#C87F43"/>
				<stop  offset="0.3165" style="stop-color:#EBCD99"/>
				<stop  offset="0.3627" style="stop-color:#FFFACB"/>
				<stop  offset="0.3746" style="stop-color:#FDF4C0"/>
				<stop  offset="0.5282" style="stop-color:#E3AB36"/>
				<stop  offset="0.6124" style="stop-color:#CF862C"/>
				<stop  offset="0.6908" style="stop-color:#C06A24"/>
				<stop  offset="0.7363" style="stop-color:#BA6021"/>
				<stop  offset="0.7697" style="stop-color:#BC6525"/>
				<stop  offset="0.8074" style="stop-color:#C37231"/>
				<stop  offset="0.8471" style="stop-color:#CD8944"/>
				<stop  offset="0.8883" style="stop-color:#DCA85F"/>
				<stop  offset="0.9302" style="stop-color:#F0D182"/>
				<stop  offset="0.9426" style="stop-color:#F6DE8D"/>
			</linearGradient>
			<path class="st2" d="M52.4,71.3l7.1-1l3.1,16.7l6.7-18.1l7.2-1.1l4.5,16.5l5.2-17.9l7.3-1.1L84,94.1l-6.7,1l-4.8-16.7l-7.1,18.4
				l-6.7,1L52.4,71.3z"/>
			
				<linearGradient id="SVGID_00000123418727463405845330000000693052646650750084_" gradientUnits="userSpaceOnUse" x1="92.9761" y1="94.0277" x2="92.9761" y2="60.6524">
				<stop  offset="0" style="stop-color:#E3AB36"/>
				<stop  offset="3.336607e-02" style="stop-color:#D99931"/>
				<stop  offset="9.927555e-02" style="stop-color:#C87A28"/>
				<stop  offset="0.1553" style="stop-color:#BE6723"/>
				<stop  offset="0.1943" style="stop-color:#BA6021"/>
				<stop  offset="0.2326" style="stop-color:#C87F43"/>
				<stop  offset="0.3165" style="stop-color:#EBCD99"/>
				<stop  offset="0.3627" style="stop-color:#FFFACB"/>
				<stop  offset="0.3746" style="stop-color:#FDF4C0"/>
				<stop  offset="0.5282" style="stop-color:#E3AB36"/>
				<stop  offset="0.6124" style="stop-color:#CF862C"/>
				<stop  offset="0.6908" style="stop-color:#C06A24"/>
				<stop  offset="0.7363" style="stop-color:#BA6021"/>
				<stop  offset="0.7697" style="stop-color:#BC6525"/>
				<stop  offset="0.8074" style="stop-color:#C37231"/>
				<stop  offset="0.8471" style="stop-color:#CD8944"/>
				<stop  offset="0.8883" style="stop-color:#DCA85F"/>
				<stop  offset="0.9302" style="stop-color:#F0D182"/>
				<stop  offset="0.9426" style="stop-color:#F6DE8D"/>
			</linearGradient>
			<path style="fill:url(#SVGID_00000123418727463405845330000000693052646650750084_);" d="M96.6,64.8l6.7-1l-1.7,27.7l-6.7,1
				L96.6,64.8z"/>
			
				<linearGradient id="SVGID_00000060709359491370874610000013599605550404777859_" gradientUnits="userSpaceOnUse" x1="92.9761" y1="94.0277" x2="92.9761" y2="60.6524">
				<stop  offset="0" style="stop-color:#E3AB36"/>
				<stop  offset="3.336607e-02" style="stop-color:#D99931"/>
				<stop  offset="9.927555e-02" style="stop-color:#C87A28"/>
				<stop  offset="0.1553" style="stop-color:#BE6723"/>
				<stop  offset="0.1943" style="stop-color:#BA6021"/>
				<stop  offset="0.2326" style="stop-color:#C87F43"/>
				<stop  offset="0.3165" style="stop-color:#EBCD99"/>
				<stop  offset="0.3627" style="stop-color:#FFFACB"/>
				<stop  offset="0.3746" style="stop-color:#FDF4C0"/>
				<stop  offset="0.5282" style="stop-color:#E3AB36"/>
				<stop  offset="0.6124" style="stop-color:#CF862C"/>
				<stop  offset="0.6908" style="stop-color:#C06A24"/>
				<stop  offset="0.7363" style="stop-color:#BA6021"/>
				<stop  offset="0.7697" style="stop-color:#BC6525"/>
				<stop  offset="0.8074" style="stop-color:#C37231"/>
				<stop  offset="0.8471" style="stop-color:#CD8944"/>
				<stop  offset="0.8883" style="stop-color:#DCA85F"/>
				<stop  offset="0.9302" style="stop-color:#F0D182"/>
				<stop  offset="0.9426" style="stop-color:#F6DE8D"/>
			</linearGradient>
			<path style="fill:url(#SVGID_00000060709359491370874610000013599605550404777859_);" d="M108.5,63l6.6-1l10.7,14.7l1-16.4l6.7-1
				l-1.7,27.7l-6.6,1l-10.8-14.7l-1,16.4l-6.7,1L108.5,63z"/>
		</g>
	</g>
	<g>
		<g>
			<path d="M57.6,37.6l13.9-2c4.3-0.6,7.6,1.4,8.1,4.8c0.4,3.1-1.2,6-4,7.8c2.3,0.7,4.1,2.7,4.5,5.1c0.7,5.1-3.7,9-9.2,9.8
				l-14.8,2.2L57.6,37.6z M69.5,57.5c2.5-0.4,4.1-2.2,3.8-4.2c-0.2-1.2-1.2-1.7-3.1-1.4l-7,1l-0.3,5.6L69.5,57.5z M69.2,46.8
				c2.3-0.3,3.9-2,3.6-4c-0.2-1.1-1.1-1.5-2.9-1.2l-6,0.9l-0.3,5.1L69.2,46.8z"/>
			<path d="M85.2,33.6l6.7-1l-1.7,27.7l-6.7,1L85.2,33.6z"/>
			<path d="M108.7,42l12.3-1.8l-0.7,11.6c-2.9,3.3-7,5.5-10.9,6.1c-7.1,1-13.1-3.4-14.1-9.9c-1.3-8.7,6.3-17.4,15-18.6
				c4.3-0.6,8.3,0.7,10.9,3.3l-4.9,4.8c-1.3-1.6-3.5-2.2-5.6-1.9c-5.2,0.8-9.3,6.4-8.6,11.3c0.5,3.3,3.4,5.5,6.9,5
				c1.8-0.3,3.6-1.2,5-2.5l0.2-2.9l-5.7,0.8L108.7,42z"/>
		</g>
		<g>
			
				<linearGradient id="SVGID_00000080917352400747825360000006004347336718564270_" gradientUnits="userSpaceOnUse" x1="88.5466" y1="61.7675" x2="88.5466" y2="30.484">
				<stop  offset="0" style="stop-color:#E3AB36"/>
				<stop  offset="3.336607e-02" style="stop-color:#D99931"/>
				<stop  offset="9.927555e-02" style="stop-color:#C87A28"/>
				<stop  offset="0.1553" style="stop-color:#BE6723"/>
				<stop  offset="0.1943" style="stop-color:#BA6021"/>
				<stop  offset="0.2326" style="stop-color:#C87F43"/>
				<stop  offset="0.3165" style="stop-color:#EBCD99"/>
				<stop  offset="0.3627" style="stop-color:#FFFACB"/>
				<stop  offset="0.3746" style="stop-color:#FDF4C0"/>
				<stop  offset="0.5282" style="stop-color:#E3AB36"/>
				<stop  offset="0.6124" style="stop-color:#CF862C"/>
				<stop  offset="0.6908" style="stop-color:#C06A24"/>
				<stop  offset="0.7363" style="stop-color:#BA6021"/>
				<stop  offset="0.7697" style="stop-color:#BC6525"/>
				<stop  offset="0.8074" style="stop-color:#C37231"/>
				<stop  offset="0.8471" style="stop-color:#CD8944"/>
				<stop  offset="0.8883" style="stop-color:#DCA85F"/>
				<stop  offset="0.9302" style="stop-color:#F0D182"/>
				<stop  offset="0.9426" style="stop-color:#F6DE8D"/>
			</linearGradient>
			<path style="fill:url(#SVGID_00000080917352400747825360000006004347336718564270_);" d="M57.6,37.6l13.9-2
				c4.3-0.6,7.6,1.4,8.1,4.8c0.4,3.1-1.2,6-4,7.8c2.3,0.7,4.1,2.7,4.5,5.1c0.7,5.1-3.7,9-9.2,9.8l-14.8,2.2L57.6,37.6z M69.5,57.5
				c2.5-0.4,4.1-2.2,3.8-4.2c-0.2-1.2-1.2-1.7-3.1-1.4l-7,1l-0.3,5.6L69.5,57.5z M69.2,46.8c2.3-0.3,3.9-2,3.6-4
				c-0.2-1.1-1.1-1.5-2.9-1.2l-6,0.9l-0.3,5.1L69.2,46.8z"/>
			
				<linearGradient id="SVGID_00000163074315221716903390000002910929160970409601_" gradientUnits="userSpaceOnUse" x1="88.5466" y1="61.7675" x2="88.5466" y2="30.484">
				<stop  offset="0" style="stop-color:#E3AB36"/>
				<stop  offset="3.336607e-02" style="stop-color:#D99931"/>
				<stop  offset="9.927555e-02" style="stop-color:#C87A28"/>
				<stop  offset="0.1553" style="stop-color:#BE6723"/>
				<stop  offset="0.1943" style="stop-color:#BA6021"/>
				<stop  offset="0.2326" style="stop-color:#C87F43"/>
				<stop  offset="0.3165" style="stop-color:#EBCD99"/>
				<stop  offset="0.3627" style="stop-color:#FFFACB"/>
				<stop  offset="0.3746" style="stop-color:#FDF4C0"/>
				<stop  offset="0.5282" style="stop-color:#E3AB36"/>
				<stop  offset="0.6124" style="stop-color:#CF862C"/>
				<stop  offset="0.6908" style="stop-color:#C06A24"/>
				<stop  offset="0.7363" style="stop-color:#BA6021"/>
				<stop  offset="0.7697" style="stop-color:#BC6525"/>
				<stop  offset="0.8074" style="stop-color:#C37231"/>
				<stop  offset="0.8471" style="stop-color:#CD8944"/>
				<stop  offset="0.8883" style="stop-color:#DCA85F"/>
				<stop  offset="0.9302" style="stop-color:#F0D182"/>
				<stop  offset="0.9426" style="stop-color:#F6DE8D"/>
			</linearGradient>
			<path style="fill:url(#SVGID_00000163074315221716903390000002910929160970409601_);" d="M85.2,33.6l6.7-1l-1.7,27.7l-6.7,1
				L85.2,33.6z"/>
			
				<linearGradient id="SVGID_00000077314884472610071310000016247356321099168177_" gradientUnits="userSpaceOnUse" x1="88.5466" y1="61.7675" x2="88.5466" y2="30.484">
				<stop  offset="0" style="stop-color:#E3AB36"/>
				<stop  offset="3.336607e-02" style="stop-color:#D99931"/>
				<stop  offset="9.927555e-02" style="stop-color:#C87A28"/>
				<stop  offset="0.1553" style="stop-color:#BE6723"/>
				<stop  offset="0.1943" style="stop-color:#BA6021"/>
				<stop  offset="0.2326" style="stop-color:#C87F43"/>
				<stop  offset="0.3165" style="stop-color:#EBCD99"/>
				<stop  offset="0.3627" style="stop-color:#FFFACB"/>
				<stop  offset="0.3746" style="stop-color:#FDF4C0"/>
				<stop  offset="0.5282" style="stop-color:#E3AB36"/>
				<stop  offset="0.6124" style="stop-color:#CF862C"/>
				<stop  offset="0.6908" style="stop-color:#C06A24"/>
				<stop  offset="0.7363" style="stop-color:#BA6021"/>
				<stop  offset="0.7697" style="stop-color:#BC6525"/>
				<stop  offset="0.8074" style="stop-color:#C37231"/>
				<stop  offset="0.8471" style="stop-color:#CD8944"/>
				<stop  offset="0.8883" style="stop-color:#DCA85F"/>
				<stop  offset="0.9302" style="stop-color:#F0D182"/>
				<stop  offset="0.9426" style="stop-color:#F6DE8D"/>
			</linearGradient>
			<path style="fill:url(#SVGID_00000077314884472610071310000016247356321099168177_);" d="M108.7,42l12.3-1.8l-0.7,11.6
				c-2.9,3.3-7,5.5-10.9,6.1c-7.1,1-13.1-3.4-14.1-9.9c-1.3-8.7,6.3-17.4,15-18.6c4.3-0.6,8.3,0.7,10.9,3.3l-4.9,4.8
				c-1.3-1.6-3.5-2.2-5.6-1.9c-5.2,0.8-9.3,6.4-8.6,11.3c0.5,3.3,3.4,5.5,6.9,5c1.8-0.3,3.6-1.2,5-2.5l0.2-2.9l-5.7,0.8L108.7,42z"
				/>
		</g>
	</g>
</g>
<g>
	<g>
		
			<linearGradient id="SVGID_00000033346793156123523670000000810100770254900648_" gradientUnits="userSpaceOnUse" x1="175.3218" y1="119.2401" x2="160.696" y2="119.2401" gradientTransform="matrix(0.9992 4.030000e-02 -4.030000e-02 0.9992 3.7588 -4.2896)">
			<stop  offset="0" style="stop-color:#F8C625"/>
			<stop  offset="1.477624e-02" style="stop-color:#E5B428"/>
			<stop  offset="3.429272e-02" style="stop-color:#D4A42A"/>
			<stop  offset="5.860293e-02" style="stop-color:#C9982C"/>
			<stop  offset="9.270363e-02" style="stop-color:#C2922D"/>
			<stop  offset="0.1874" style="stop-color:#C0902D"/>
			<stop  offset="0.1972" style="stop-color:#C89E41"/>
			<stop  offset="0.2197" style="stop-color:#D9B96B"/>
			<stop  offset="0.2427" style="stop-color:#E7D08D"/>
			<stop  offset="0.266" style="stop-color:#F1E1A7"/>
			<stop  offset="0.2899" style="stop-color:#F9EEBA"/>
			<stop  offset="0.3144" style="stop-color:#FEF6C5"/>
			<stop  offset="0.3408" style="stop-color:#FFF8C9"/>
			<stop  offset="0.3411" style="stop-color:#FEF7C8"/>
			<stop  offset="0.3586" style="stop-color:#DECA94"/>
			<stop  offset="0.3763" style="stop-color:#C1A366"/>
			<stop  offset="0.394" style="stop-color:#AA8341"/>
			<stop  offset="0.4116" style="stop-color:#986A25"/>
			<stop  offset="0.4291" style="stop-color:#8B5810"/>
			<stop  offset="0.4464" style="stop-color:#844E04"/>
			<stop  offset="0.4633" style="stop-color:#814A00"/>
			<stop  offset="0.4648" style="stop-color:#834D02"/>
			<stop  offset="0.4808" style="stop-color:#9A6512"/>
			<stop  offset="0.4987" style="stop-color:#AB781E"/>
			<stop  offset="0.5196" style="stop-color:#B78626"/>
			<stop  offset="0.546" style="stop-color:#BE8E2C"/>
			<stop  offset="0.596" style="stop-color:#C0902D"/>
			<stop  offset="0.7251" style="stop-color:#EBD386"/>
			<stop  offset="0.8612" style="stop-color:#C0902D"/>
			<stop  offset="0.8784" style="stop-color:#C29331"/>
			<stop  offset="0.8961" style="stop-color:#C79B3D"/>
			<stop  offset="0.914" style="stop-color:#CFA952"/>
			<stop  offset="0.9321" style="stop-color:#DBBC6F"/>
			<stop  offset="0.9502" style="stop-color:#EAD594"/>
			<stop  offset="0.9682" style="stop-color:#FCF2C1"/>
			<stop  offset="0.9713" style="stop-color:#FFF8C9"/>
		</linearGradient>
		<path style="fill:url(#SVGID_00000033346793156123523670000000810100770254900648_);" d="M163.3,91.4l-2,49.8l-9-0.4l-0.4,10.1
			l11.8,0.4c4,0.1,7.4-3,7.6-7l0.1-2.8l2-49.8L163.3,91.4z"/>
		
			<radialGradient id="SVGID_00000000913352505483410380000015986811632926946219_" cx="169.6909" cy="79.1849" r="31.385" gradientTransform="matrix(0.9992 4.030000e-02 -4.030000e-02 0.9992 3.7588 -4.2896)" gradientUnits="userSpaceOnUse">
			<stop  offset="2.580430e-02" style="stop-color:#8336FF"/>
			<stop  offset="0.8166" style="stop-color:#200848"/>
		</radialGradient>
		<path style="fill:url(#SVGID_00000000913352505483410380000015986811632926946219_);" d="M181,92.3c-0.3,7-6.2,12.4-13.1,12.1
			c-7-0.3-12.4-6.2-12.1-13.1c0.3-7,6.2-12.4,13.1-12.1C175.8,79.5,181.3,85.4,181,92.3z"/>
		
			<linearGradient id="SVGID_00000094589006033733289510000001922709974358648209_" gradientUnits="userSpaceOnUse" x1="168.3448" y1="68.6563" x2="168.3448" y2="89.4147" gradientTransform="matrix(0.9992 4.030000e-02 -4.030000e-02 0.9992 3.7588 -4.2896)">
			<stop  offset="0" style="stop-color:#FFFFFF"/>
			<stop  offset="1" style="stop-color:#FFFFFF;stop-opacity:0"/>
		</linearGradient>
		<path style="fill:url(#SVGID_00000094589006033733289510000001922709974358648209_);" d="M177,88c-0.2,4.7-4.1,8.3-8.8,8.1
			c-4.7-0.2-8.3-4.1-8.1-8.8c0.2-4.7,4.1-8.3,8.8-8.1C173.5,79.4,177.2,83.3,177,88z"/>
		
			<radialGradient id="SVGID_00000152970290866846583200000003030209102556897196_" cx="152.133" cy="143.8813" r="10.1707" gradientTransform="matrix(0.9992 4.030000e-02 -4.030000e-02 0.9992 3.7588 -4.2896)" gradientUnits="userSpaceOnUse">
			<stop  offset="0.2616" style="stop-color:#814A00"/>
			<stop  offset="0.3447" style="stop-color:#8C5A17"/>
			<stop  offset="0.519" style="stop-color:#A98451"/>
			<stop  offset="0.7673" style="stop-color:#D7C5AE"/>
			<stop  offset="0.9713" style="stop-color:#FFFFFF"/>
		</radialGradient>
		<polygon style="fill:url(#SVGID_00000152970290866846583200000003030209102556897196_);" points="161.7,141.3 152.3,140.9 
			151.9,151.1 161.3,151.4 		"/>
	</g>
	<g>
		
			<linearGradient id="SVGID_00000160166961136692585970000011714126336714841255_" gradientUnits="userSpaceOnUse" x1="157.5202" y1="118.068" x2="157.5202" y2="166.5697" gradientTransform="matrix(0.9992 4.030000e-02 -4.030000e-02 0.9992 3.7588 -4.2896)">
			<stop  offset="0" style="stop-color:#F8C625"/>
			<stop  offset="1.477624e-02" style="stop-color:#E5B428"/>
			<stop  offset="3.429272e-02" style="stop-color:#D4A42A"/>
			<stop  offset="5.860293e-02" style="stop-color:#C9982C"/>
			<stop  offset="9.270363e-02" style="stop-color:#C2922D"/>
			<stop  offset="0.1874" style="stop-color:#C0902D"/>
			<stop  offset="0.1972" style="stop-color:#C89E41"/>
			<stop  offset="0.2197" style="stop-color:#D9B96B"/>
			<stop  offset="0.2427" style="stop-color:#E7D08D"/>
			<stop  offset="0.266" style="stop-color:#F1E1A7"/>
			<stop  offset="0.2899" style="stop-color:#F9EEBA"/>
			<stop  offset="0.3144" style="stop-color:#FEF6C5"/>
			<stop  offset="0.3408" style="stop-color:#FFF8C9"/>
			<stop  offset="0.3768" style="stop-color:#FEF6C7"/>
			<stop  offset="0.3948" style="stop-color:#F9EFBF"/>
			<stop  offset="0.4088" style="stop-color:#F1E4B2"/>
			<stop  offset="0.4208" style="stop-color:#E5D49F"/>
			<stop  offset="0.4314" style="stop-color:#D5BF87"/>
			<stop  offset="0.4411" style="stop-color:#C3A569"/>
			<stop  offset="0.45" style="stop-color:#AC8645"/>
			<stop  offset="0.4582" style="stop-color:#93631D"/>
			<stop  offset="0.4633" style="stop-color:#814A00"/>
			<stop  offset="0.4648" style="stop-color:#834D02"/>
			<stop  offset="0.4808" style="stop-color:#9A6512"/>
			<stop  offset="0.4987" style="stop-color:#AB781E"/>
			<stop  offset="0.5196" style="stop-color:#B78626"/>
			<stop  offset="0.546" style="stop-color:#BE8E2C"/>
			<stop  offset="0.596" style="stop-color:#C0902D"/>
			<stop  offset="0.7251" style="stop-color:#EBD386"/>
			<stop  offset="0.8612" style="stop-color:#C0902D"/>
			<stop  offset="0.8784" style="stop-color:#C29331"/>
			<stop  offset="0.8961" style="stop-color:#C79B3D"/>
			<stop  offset="0.914" style="stop-color:#CFA952"/>
			<stop  offset="0.9321" style="stop-color:#DBBC6F"/>
			<stop  offset="0.9502" style="stop-color:#EAD594"/>
			<stop  offset="0.9682" style="stop-color:#FCF2C1"/>
			<stop  offset="0.9713" style="stop-color:#FFF8C9"/>
		</linearGradient>
		<path style="fill:url(#SVGID_00000160166961136692585970000011714126336714841255_);" d="M157.7,125.2l-7.9-0.3l-1.7,42.3l7.9,0.3
			c2.7,0.1,5.3-9.3,5.7-21C162.2,134.8,160.4,125.3,157.7,125.2z"/>
		
			<radialGradient id="SVGID_00000144329888725392559230000009368943047223942317_" cx="147.3716" cy="144.1912" r="15.6317" gradientTransform="matrix(0.9992 4.030000e-02 -7.698832e-02 1.9089 9.0489 -135.4534)" gradientUnits="userSpaceOnUse">
			<stop  offset="0.4587" style="stop-color:#814A00"/>
			<stop  offset="0.506" style="stop-color:#88540E"/>
			<stop  offset="0.5958" style="stop-color:#9A6F33"/>
			<stop  offset="0.7185" style="stop-color:#B89970"/>
			<stop  offset="0.8677" style="stop-color:#E1D4C2"/>
			<stop  offset="0.9713" style="stop-color:#FFFFFF"/>
		</radialGradient>
		<path style="fill:url(#SVGID_00000144329888725392559230000009368943047223942317_);" d="M157.7,125.2l-7.9-0.3l-1.7,42.3l7.9,0.3
			c2.7,0.1,5.3-9.3,5.7-21C162.2,134.8,160.4,125.3,157.7,125.2z"/>
	</g>
	<g>
		
			<linearGradient id="SVGID_00000016041876658608613380000003287323568273637300_" gradientUnits="userSpaceOnUse" x1="1247.6016" y1="118.3681" x2="1247.6016" y2="166.8698" gradientTransform="matrix(-0.9992 -4.030000e-02 -4.030000e-02 0.9992 1282.5311 46.9879)">
			<stop  offset="0" style="stop-color:#F8C625"/>
			<stop  offset="1.477624e-02" style="stop-color:#E5B428"/>
			<stop  offset="3.429272e-02" style="stop-color:#D4A42A"/>
			<stop  offset="5.860293e-02" style="stop-color:#C9982C"/>
			<stop  offset="9.270363e-02" style="stop-color:#C2922D"/>
			<stop  offset="0.1874" style="stop-color:#C0902D"/>
			<stop  offset="0.1972" style="stop-color:#C89E41"/>
			<stop  offset="0.2197" style="stop-color:#D9B96B"/>
			<stop  offset="0.2427" style="stop-color:#E7D08D"/>
			<stop  offset="0.266" style="stop-color:#F1E1A7"/>
			<stop  offset="0.2899" style="stop-color:#F9EEBA"/>
			<stop  offset="0.3144" style="stop-color:#FEF6C5"/>
			<stop  offset="0.3408" style="stop-color:#FFF8C9"/>
			<stop  offset="0.3768" style="stop-color:#FEF6C7"/>
			<stop  offset="0.3948" style="stop-color:#F9EFBF"/>
			<stop  offset="0.4088" style="stop-color:#F1E4B2"/>
			<stop  offset="0.4208" style="stop-color:#E5D49F"/>
			<stop  offset="0.4314" style="stop-color:#D5BF87"/>
			<stop  offset="0.4411" style="stop-color:#C3A569"/>
			<stop  offset="0.45" style="stop-color:#AC8645"/>
			<stop  offset="0.4582" style="stop-color:#93631D"/>
			<stop  offset="0.4633" style="stop-color:#814A00"/>
			<stop  offset="0.4648" style="stop-color:#834D02"/>
			<stop  offset="0.4808" style="stop-color:#9A6512"/>
			<stop  offset="0.4987" style="stop-color:#AB781E"/>
			<stop  offset="0.5196" style="stop-color:#B78626"/>
			<stop  offset="0.546" style="stop-color:#BE8E2C"/>
			<stop  offset="0.596" style="stop-color:#C0902D"/>
			<stop  offset="0.7251" style="stop-color:#EBD386"/>
			<stop  offset="0.8612" style="stop-color:#C0902D"/>
			<stop  offset="0.8784" style="stop-color:#C29331"/>
			<stop  offset="0.8961" style="stop-color:#C79B3D"/>
			<stop  offset="0.914" style="stop-color:#CFA952"/>
			<stop  offset="0.9321" style="stop-color:#DBBC6F"/>
			<stop  offset="0.9502" style="stop-color:#EAD594"/>
			<stop  offset="0.9682" style="stop-color:#FCF2C1"/>
			<stop  offset="0.9713" style="stop-color:#FFF8C9"/>
		</linearGradient>
		<path style="fill:url(#SVGID_00000016041876658608613380000003287323568273637300_);" d="M29.5,120l7.9,0.3l-1.7,42.3l-7.9-0.3
			c-2.7-0.1-4.5-9.7-4-21.3C24.2,129.3,26.8,119.9,29.5,120z"/>
		
			<radialGradient id="SVGID_00000126325411954206703250000013161723642882253483_" cx="1237.4529" cy="144.4913" r="15.6317" gradientTransform="matrix(-0.9992 -4.030000e-02 -7.698832e-02 1.9089 1287.8323 -84.4489)" gradientUnits="userSpaceOnUse">
			<stop  offset="0.4587" style="stop-color:#814A00"/>
			<stop  offset="0.506" style="stop-color:#88540E"/>
			<stop  offset="0.5958" style="stop-color:#9A6F33"/>
			<stop  offset="0.7185" style="stop-color:#B89970"/>
			<stop  offset="0.8677" style="stop-color:#E1D4C2"/>
			<stop  offset="0.9713" style="stop-color:#FFFFFF"/>
		</radialGradient>
		<path style="fill:url(#SVGID_00000126325411954206703250000013161723642882253483_);" d="M29.5,120l7.9,0.3l-1.7,42.3l-7.9-0.3
			c-2.7-0.1-4.5-9.7-4-21.3C24.2,129.3,26.8,119.9,29.5,120z"/>
	</g>
	
		<linearGradient id="SVGID_00000142173591592718236590000008687036218193887678_" gradientUnits="userSpaceOnUse" x1="94.9356" y1="113.1578" x2="94.9356" y2="178.9657" gradientTransform="matrix(0.9992 4.030000e-02 -4.030000e-02 0.9992 3.7588 -4.2896)">
		<stop  offset="0" style="stop-color:#A8A8A8"/>
		<stop  offset="0.1712" style="stop-color:#C9C9C9"/>
		<stop  offset="0.399" style="stop-color:#F0F0F0"/>
		<stop  offset="0.5182" style="stop-color:#FFFFFF"/>
		<stop  offset="0.6062" style="stop-color:#F7F7F7"/>
		<stop  offset="0.7403" style="stop-color:#E2E2E2"/>
		<stop  offset="0.9028" style="stop-color:#C0C0C0"/>
		<stop  offset="1" style="stop-color:#A8A8A8"/>
	</linearGradient>
	<path style="fill:url(#SVGID_00000142173591592718236590000008687036218193887678_);" d="M152.2,148.3
		c-0.8,18.6-5.9,33.5-11.5,33.3l-99.3-4l0-0.1c-5.3-1.4-8.9-16.1-8.1-34c0.7-17.9,5.5-32.3,10.9-33.3l0-0.1l99.3,4
		C149,114.4,153,129.7,152.2,148.3z"/>
	
		<radialGradient id="SVGID_00000069379805125639786870000004793488921318807947_" cx="40.9407" cy="146.4976" r="24.1825" gradientTransform="matrix(0.9992 4.030000e-02 -4.030000e-02 0.9992 3.7588 -4.2896)" gradientUnits="userSpaceOnUse">
		<stop  offset="2.580430e-02" style="stop-color:#8336FF"/>
		<stop  offset="0.8166" style="stop-color:#200848"/>
	</radialGradient>
	<path style="fill:url(#SVGID_00000069379805125639786870000004793488921318807947_);" d="M41.4,177.6L41.4,177.6
		c-5.3-1.4-8.9-16.2-8.1-34.1c0.7-17.9,5.5-32.3,10.9-33.3l0-0.1l1.6,0.1c-4.7,3.7-8.5,17.2-9.2,33.4c-0.7,16.2,2.1,29.9,6.5,34
		L41.4,177.6z"/>
	
		<radialGradient id="SVGID_00000127759778642955322150000011429575990547843263_" cx="148.8905" cy="146.496" r="24.1871" gradientTransform="matrix(0.9992 4.030000e-02 -4.030000e-02 0.9992 3.7588 -4.2896)" gradientUnits="userSpaceOnUse">
		<stop  offset="2.580430e-02" style="stop-color:#8336FF"/>
		<stop  offset="0.8166" style="stop-color:#200848"/>
	</radialGradient>
	<path style="fill:url(#SVGID_00000127759778642955322150000011429575990547843263_);" d="M152.2,148.3
		c-0.8,18.6-5.9,33.5-11.5,33.3l-1,0c4.7-3.7,8.5-17.2,9.2-33.4c0.7-16.2-2.1-29.9-6.5-34l1,0C149,114.4,153,129.7,152.2,148.3z"/>
	
		<linearGradient id="SVGID_00000013898338330720396280000014233462557223806110_" gradientUnits="userSpaceOnUse" x1="73.5663" y1="146.497" x2="80.9282" y2="146.497" gradientTransform="matrix(0.9992 4.030000e-02 -4.030000e-02 0.9992 3.7588 -4.2896)">
		<stop  offset="2.220600e-02" style="stop-color:#606060"/>
		<stop  offset="0.2849" style="stop-color:#4B4B4B"/>
		<stop  offset="0.7175" style="stop-color:#2D2D2D"/>
		<stop  offset="0.9631" style="stop-color:#222222"/>
	</linearGradient>
	<path style="fill:url(#SVGID_00000013898338330720396280000014233462557223806110_);" d="M77.4,179.1L75,179
		c-2.7-4-4.3-17.7-3.6-33.9c0.7-16.2,3.3-29.7,6.3-33.5l2.4,0.1c-3,3.8-5.7,17.3-6.3,33.5C73.1,161.3,74.7,175,77.4,179.1z"/>
	<g>
		
			<linearGradient id="SVGID_00000080188217611821473660000000150927652744355736_" gradientUnits="userSpaceOnUse" x1="108.3833" y1="146.4966" x2="115.744" y2="146.4966" gradientTransform="matrix(0.9992 4.030000e-02 -4.030000e-02 0.9992 3.7588 -4.2896)">
			<stop  offset="2.220600e-02" style="stop-color:#606060"/>
			<stop  offset="0.2849" style="stop-color:#4B4B4B"/>
			<stop  offset="0.7175" style="stop-color:#2D2D2D"/>
			<stop  offset="0.9631" style="stop-color:#222222"/>
		</linearGradient>
		<path style="fill:url(#SVGID_00000080188217611821473660000000150927652744355736_);" d="M113.5,146.8
			c-0.7,16.2-3.3,29.7-6.3,33.5l-2.4-0.1c3-3.8,5.7-17.3,6.3-33.5c0.7-16.2-0.9-29.9-3.6-33.9l2.4,0.1
			C112.6,116.9,114.2,130.6,113.5,146.8z"/>
	</g>
	<path class="st21" d="M75,179c-2.7-4-4.3-17.7-3.6-33.9c0.7-16.2,3.3-29.7,6.3-33.5"/>
	<path class="st21" d="M80.1,111.6c-3,3.8-5.7,17.3-6.3,33.5c-0.7,16.2,0.9,29.9,3.6,33.9"/>
	<g>
		<path class="st21" d="M109.9,112.8c2.7,4,4.3,17.7,3.6,33.9c-0.7,16.2-3.3,29.7-6.3,33.5"/>
		<path class="st21" d="M104.8,180.2c3-3.8,5.7-17.3,6.3-33.5c0.7-16.2-0.9-29.9-3.6-33.9"/>
	</g>
	<g>
		<path class="st22" d="M68.8,138.8c0.2-0.2,0.2-0.6,0-0.8l-2-2.4c-0.1-0.1-0.3-0.2-0.4-0.2c-0.2,0-0.3,0-0.5,0.2
			c-0.2,0.1-4,3.3-9.3,0.6c-3.9-1.9-6.5-1.4-7.8-0.7l0.1-1.3c0-0.4-0.3-0.7-0.6-0.7l-4.7-0.2c-0.4,0-0.7,0.3-0.7,0.6l-0.5,13
			c0,0.4,0.3,0.7,0.6,0.7l4.3,0.2c0.4,0,0.7-0.3,0.7-0.6l0.1-2.8c0.2-0.2,0.6-0.7,1.2-0.8c0.7-0.1,1.3,0.5,1.7,1
			c1,1.2,2,1.6,2.9,1.8c-3.5,2.7-8.8,8.2-9.1,16.7c0,0.4,0.3,0.7,0.6,0.7l15.5,0.6c0.2,0,0.4-0.1,0.5-0.2c0.1-0.2,0.2-0.4,0.1-0.6
			c0,0-0.7-3.1-0.1-7.7C61.8,151.6,63.5,145.3,68.8,138.8z"/>
		<path class="st23" d="M68.8,137.4c0.2-0.2,0.2-0.6,0-0.8l-2-2.4c-0.1-0.1-0.3-0.2-0.4-0.2c-0.2,0-0.3,0-0.5,0.2
			c-0.2,0.1-4,3.3-9.3,0.6c-3.9-1.9-6.5-1.4-7.8-0.7l0.1-1.3c0-0.4-0.3-0.7-0.6-0.7l-4.7-0.2c-0.4,0-0.7,0.3-0.7,0.6l-0.5,13
			c0,0.4,0.3,0.7,0.6,0.7l4.3,0.2c0.4,0,0.7-0.3,0.7-0.6l0.1-2.8c0.2-0.2,0.6-0.7,1.2-0.8c0.7-0.1,1.3,0.5,1.7,1
			c1,1.2,2,1.6,2.9,1.8c-3.5,2.7-8.8,8.2-9.1,16.7c0,0.4,0.3,0.7,0.6,0.7l15.5,0.6c0.2,0,0.4-0.1,0.5-0.2c0.1-0.2,0.2-0.4,0.1-0.6
			c0,0-0.7-3.1-0.1-7.7C61.8,150.3,63.6,143.9,68.8,137.4z"/>
		<g>
			
				<linearGradient id="SVGID_00000027585713695434378770000017563778100324294050_" gradientUnits="userSpaceOnUse" x1="57.631" y1="151.1573" x2="57.631" y2="134.181" gradientTransform="matrix(0.9992 4.030000e-02 -4.030000e-02 0.9992 3.7588 -4.2896)">
				<stop  offset="2.580430e-02" style="stop-color:#8336FF"/>
				<stop  offset="0.8166" style="stop-color:#200848"/>
			</linearGradient>
			<path style="fill:url(#SVGID_00000027585713695434378770000017563778100324294050_);" d="M43.3,133.1l-0.5,13l4.3,0.2l0.1-3
				c0,0,1.7-2.8,4.1,0.1c2.4,2.9,4.8,1,5.9,0.7c0,0-11.5,5.6-12,18.3l15.5,0.6c0,0-2.9-12.5,7.5-25.3l-2-2.4c0,0-4.2,3.6-10.1,0.7
				c-5.8-2.9-8.3,0-8.3,0l0.1-2.6L43.3,133.1z"/>
			<path class="st25" d="M60.8,163l-15.5-0.6c0.5-12.3,11.3-17.9,12-18.2c-1.1,0.3-3.5,2.1-5.9-0.7c-2.4-2.9-4.1-0.1-4.1-0.1l-0.1,3
				l-4.3-0.2l0.5-13l4.7,0.2L48,136c0,0,2.4-2.9,8.3,0c5.8,2.9,10.1-0.7,10.1-0.7l2,2.4C57.8,150.5,60.8,163,60.8,163z"/>
			<path class="st22" d="M55.3,146.8c0,0-0.2,0.2-0.6,0.5c-0.4,0.3-0.8,0.8-1.4,1.4c-0.5,0.6-1.1,1.3-1.7,2.1
				c-0.3,0.4-0.6,0.8-0.9,1.3c-0.3,0.4-0.6,0.9-0.8,1.4c-0.3,0.5-0.5,0.9-0.8,1.4c-0.2,0.5-0.5,0.9-0.7,1.4
				c-0.2,0.5-0.4,0.9-0.6,1.3c-0.2,0.4-0.3,0.8-0.5,1.2c-0.1,0.4-0.3,0.7-0.4,1c-0.1,0.3-0.2,0.6-0.3,0.8c-0.1,0.5-0.2,0.7-0.2,0.7
				s0.1-0.3,0.1-0.7c0-0.2,0.1-0.5,0.2-0.8c0.1-0.3,0.2-0.7,0.3-1.1c0.1-0.4,0.2-0.8,0.4-1.3c0.2-0.4,0.3-0.9,0.5-1.4
				c0.2-0.5,0.4-0.9,0.7-1.4c0.3-0.5,0.5-1,0.8-1.4c0.3-0.5,0.6-0.9,0.9-1.4c0.3-0.4,0.6-0.9,0.9-1.3c0.3-0.4,0.6-0.8,1-1.1
				c0.3-0.3,0.6-0.7,0.9-0.9c0.6-0.6,1.1-1,1.5-1.3C55.1,146.9,55.3,146.8,55.3,146.8z"/>
			<path class="st22" d="M49.4,136.3c0,0,0.1,0,0.2-0.1c0.1-0.1,0.3-0.1,0.5-0.2c0.2-0.1,0.5-0.1,0.8-0.2c0.3-0.1,0.7-0.1,1.1-0.1
				c0.2,0,0.4,0,0.6,0.1c0.2,0,0.5,0,0.7,0.1c0.5,0.1,1,0.2,1.4,0.4c0.2,0.1,0.5,0.2,0.7,0.3c0.2,0.1,0.5,0.2,0.7,0.3
				c0.5,0.2,1,0.4,1.5,0.5c1,0.3,2.1,0.5,3.1,0.5c1,0,1.9,0,2.7-0.1c0.4-0.1,0.7-0.2,1.1-0.3c0.3-0.1,0.6-0.2,0.8-0.3
				c0.2-0.1,0.4-0.2,0.5-0.3c0.1-0.1,0.2-0.1,0.2-0.1s-0.1,0-0.1,0.1c-0.1,0.1-0.2,0.2-0.4,0.3c-0.2,0.1-0.5,0.3-0.8,0.4
				c-0.3,0.1-0.7,0.3-1.1,0.4c-0.8,0.2-1.8,0.3-2.8,0.3c-1,0-2.1-0.2-3.2-0.4c-0.5-0.2-1-0.3-1.6-0.6c-0.2-0.1-0.5-0.2-0.7-0.4
				c-0.2-0.1-0.5-0.2-0.7-0.3c-0.4-0.2-0.9-0.4-1.3-0.5c-0.2-0.1-0.4-0.1-0.6-0.1c-0.2,0-0.4-0.1-0.6-0.1c-0.4,0-0.8,0-1.1,0
				c-0.3,0-0.6,0.1-0.8,0.1C49.6,136.2,49.4,136.3,49.4,136.3z"/>
			<path class="st22" d="M63.7,142.6c0,0,0,0.1-0.1,0.2c-0.1,0.1-0.2,0.3-0.3,0.5c-0.1,0.2-0.3,0.5-0.4,0.8
				c-0.2,0.3-0.4,0.7-0.5,1.1c-0.2,0.4-0.4,0.9-0.6,1.3c-0.2,0.5-0.3,1-0.5,1.5c-0.2,0.5-0.4,1.1-0.5,1.6c-0.1,0.6-0.3,1.2-0.4,1.7
				c-0.1,0.6-0.3,1.2-0.4,1.7c-0.1,0.6-0.2,1.2-0.3,1.7c-0.1,0.6-0.2,1.1-0.3,1.6c0,0.5-0.1,1-0.1,1.4c-0.2,1.8-0.3,3-0.3,3
				s0-1.2,0-3c0-0.5,0-0.9,0-1.5c0-0.5,0.1-1.1,0.2-1.6c0.1-0.6,0.2-1.1,0.2-1.7c0.1-0.6,0.2-1.2,0.4-1.8c0.1-0.6,0.3-1.2,0.4-1.8
				c0.2-0.6,0.4-1.1,0.6-1.7c0.2-0.5,0.4-1.1,0.6-1.5c0.2-0.5,0.4-0.9,0.6-1.3c0.2-0.4,0.4-0.8,0.6-1.1c0.2-0.3,0.4-0.6,0.5-0.8
				C63.5,142.8,63.7,142.6,63.7,142.6z"/>
			<path class="st22" d="M46.1,145.2c0,0-0.1,0.1-0.4,0.1c-0.2,0.1-0.5,0.1-0.8,0.1c-0.3,0-0.6-0.1-0.8-0.1
				c-0.2-0.1-0.3-0.2-0.3-0.2c0,0,0.1-0.1,0.4-0.1c0.2-0.1,0.5-0.1,0.8-0.1c0.3,0,0.6,0.1,0.8,0.1C46,145.1,46.1,145.2,46.1,145.2z"
				/>
		</g>
	</g>
	<g>
		<path class="st23" d="M106.5,135.3c0.2-0.2,0.2-0.6,0-0.8l-2-2.4c-0.1-0.1-0.3-0.2-0.4-0.2c-0.2,0-0.3,0-0.5,0.2
			c-0.2,0.1-4,3.3-9.3,0.6c-3.9-1.9-6.5-1.4-7.8-0.7l0.1-1.3c0-0.4-0.3-0.7-0.6-0.7l-4.7-0.2c-0.4,0-0.7,0.3-0.7,0.6l-0.5,13
			c0,0.4,0.3,0.7,0.6,0.7l4.3,0.2c0.4,0,0.7-0.3,0.7-0.6l0.1-2.8c0.2-0.2,0.6-0.7,1.2-0.8c0.7-0.1,1.3,0.5,1.7,1
			c1,1.2,2,1.6,2.9,1.8c-3.5,2.7-8.8,8.2-9.1,16.7c0,0.4,0.3,0.7,0.6,0.7l15.5,0.6c0.2,0,0.4-0.1,0.5-0.2c0.1-0.2,0.2-0.4,0.1-0.6
			c0,0-0.7-3.1-0.1-7.7C99.5,148.2,101.2,141.8,106.5,135.3z"/>
		<path class="st22" d="M106.4,136.7c0.2-0.2,0.2-0.6,0-0.8l-2-2.4c-0.1-0.1-0.3-0.2-0.4-0.2c-0.2,0-0.3,0-0.5,0.2
			c-0.2,0.1-4,3.3-9.3,0.6c-3.9-1.9-6.5-1.4-7.8-0.7l0.1-1.3c0-0.4-0.3-0.7-0.6-0.7l-4.7-0.2c-0.4,0-0.7,0.3-0.7,0.6l-0.5,13
			c0,0.4,0.3,0.7,0.6,0.7l4.3,0.2c0.4,0,0.7-0.3,0.7-0.6l0.1-2.8c0.2-0.2,0.6-0.7,1.2-0.8c0.7-0.1,1.3,0.5,1.7,1
			c1,1.2,2,1.6,2.9,1.8c-3.5,2.7-8.8,8.2-9.1,16.7c0,0.4,0.3,0.7,0.6,0.7l15.5,0.6c0.2,0,0.4-0.1,0.5-0.2c0.1-0.2,0.2-0.4,0.1-0.6
			c0,0-0.7-3.1-0.1-7.7C99.4,149.5,101.2,143.2,106.4,136.7z"/>
		<g>
			
				<linearGradient id="SVGID_00000075124670009042778760000001473663845419733668_" gradientUnits="userSpaceOnUse" x1="95.1792" y1="147.9847" x2="95.1792" y2="133.1019" gradientTransform="matrix(0.9992 4.030000e-02 -4.030000e-02 0.9992 3.7588 -4.2896)">
				<stop  offset="2.580430e-02" style="stop-color:#8336FF"/>
				<stop  offset="0.8166" style="stop-color:#200848"/>
			</linearGradient>
			<path style="fill:url(#SVGID_00000075124670009042778760000001473663845419733668_);" d="M81,131l-0.5,13l4.3,0.2l0.1-3
				c0,0,1.7-2.8,4.1,0.1c2.4,2.9,4.8,1,5.9,0.7c0,0-11.5,5.6-12,18.3l15.5,0.6c0,0-2.9-12.5,7.5-25.3l-2-2.4c0,0-4.2,3.6-10.1,0.7
				c-5.8-2.9-8.3,0-8.3,0l0.1-2.6L81,131z"/>
			<path class="st25" d="M98.4,160.9l-15.5-0.6c0.5-12.3,11.3-17.9,12-18.2c-1.1,0.3-3.5,2.1-5.9-0.7c-2.4-2.9-4.1-0.1-4.1-0.1
				l-0.1,3l-4.3-0.2l0.5-13l4.7,0.2l-0.1,2.6c0,0,2.4-2.9,8.3,0c5.8,2.9,10.1-0.7,10.1-0.7l2,2.4C95.5,148.4,98.4,160.9,98.4,160.9z
				"/>
			<path class="st22" d="M93,144.7c0,0-0.2,0.2-0.6,0.5c-0.4,0.3-0.8,0.8-1.4,1.4c-0.5,0.6-1.1,1.3-1.7,2.1
				c-0.3,0.4-0.6,0.8-0.9,1.3c-0.3,0.4-0.6,0.9-0.8,1.4c-0.3,0.5-0.5,0.9-0.8,1.4c-0.2,0.5-0.5,0.9-0.7,1.4
				c-0.2,0.5-0.4,0.9-0.6,1.3c-0.2,0.4-0.3,0.8-0.5,1.2c-0.1,0.4-0.3,0.7-0.4,1c-0.1,0.3-0.2,0.6-0.3,0.8c-0.1,0.5-0.2,0.7-0.2,0.7
				s0.1-0.3,0.1-0.7c0-0.2,0.1-0.5,0.2-0.8c0.1-0.3,0.2-0.7,0.3-1.1c0.1-0.4,0.2-0.8,0.4-1.3c0.2-0.4,0.3-0.9,0.5-1.4
				c0.2-0.5,0.4-0.9,0.7-1.4c0.3-0.5,0.5-1,0.8-1.4c0.3-0.5,0.6-0.9,0.9-1.4c0.3-0.4,0.6-0.9,0.9-1.3c0.3-0.4,0.6-0.8,1-1.1
				c0.3-0.3,0.6-0.7,0.9-0.9c0.6-0.6,1.1-1,1.5-1.3C92.8,144.8,93,144.7,93,144.7z"/>
			<path class="st22" d="M87,134.2c0,0,0.1,0,0.2-0.1c0.1-0.1,0.3-0.1,0.5-0.2c0.2-0.1,0.5-0.1,0.8-0.2c0.3-0.1,0.7-0.1,1.1-0.1
				c0.2,0,0.4,0,0.6,0.1c0.2,0,0.5,0,0.7,0.1c0.5,0.1,1,0.2,1.4,0.4c0.2,0.1,0.5,0.2,0.7,0.3c0.2,0.1,0.5,0.2,0.7,0.3
				c0.5,0.2,1,0.4,1.5,0.5c1,0.3,2.1,0.5,3.1,0.5c1,0,1.9,0,2.7-0.1c0.4-0.1,0.7-0.2,1.1-0.3c0.3-0.1,0.6-0.2,0.8-0.3
				c0.2-0.1,0.4-0.2,0.5-0.3c0.1-0.1,0.2-0.1,0.2-0.1s-0.1,0-0.1,0.1c-0.1,0.1-0.2,0.2-0.4,0.3c-0.2,0.1-0.5,0.3-0.8,0.4
				c-0.3,0.1-0.7,0.3-1.1,0.4c-0.8,0.2-1.8,0.3-2.8,0.3c-1,0-2.1-0.2-3.2-0.4c-0.5-0.2-1-0.3-1.6-0.6c-0.2-0.1-0.5-0.2-0.7-0.4
				c-0.2-0.1-0.5-0.2-0.7-0.3c-0.4-0.2-0.9-0.4-1.3-0.5c-0.2-0.1-0.4-0.1-0.6-0.1c-0.2,0-0.4-0.1-0.6-0.1c-0.4,0-0.8,0-1.1,0
				c-0.3,0-0.6,0.1-0.8,0.1C87.3,134.1,87,134.2,87,134.2z"/>
			<path class="st22" d="M101.4,140.5c0,0,0,0.1-0.1,0.2c-0.1,0.1-0.2,0.3-0.3,0.5c-0.1,0.2-0.3,0.5-0.4,0.8
				c-0.2,0.3-0.4,0.7-0.5,1.1c-0.2,0.4-0.4,0.9-0.6,1.3c-0.2,0.5-0.3,1-0.5,1.5c-0.2,0.5-0.4,1.1-0.5,1.6c-0.1,0.6-0.3,1.2-0.4,1.7
				c-0.1,0.6-0.3,1.2-0.4,1.7c-0.1,0.6-0.2,1.2-0.3,1.7c-0.1,0.6-0.2,1.1-0.3,1.6c0,0.5-0.1,1-0.1,1.4c-0.2,1.8-0.3,3-0.3,3
				s0-1.2,0-3c0-0.5,0-0.9,0-1.5c0-0.5,0.1-1.1,0.2-1.6c0.1-0.6,0.2-1.1,0.2-1.7c0.1-0.6,0.2-1.2,0.4-1.8c0.1-0.6,0.3-1.2,0.4-1.8
				c0.2-0.6,0.4-1.1,0.6-1.7c0.2-0.5,0.4-1.1,0.6-1.5c0.2-0.5,0.4-0.9,0.6-1.3c0.2-0.4,0.4-0.8,0.6-1.1c0.2-0.3,0.4-0.6,0.5-0.8
				C101.2,140.7,101.4,140.5,101.4,140.5z"/>
			<path class="st22" d="M83.8,143.1c0,0-0.1,0.1-0.4,0.1c-0.2,0.1-0.5,0.1-0.8,0.1c-0.3,0-0.6-0.1-0.8-0.1
				c-0.2-0.1-0.3-0.2-0.3-0.2c0,0,0.1-0.1,0.4-0.1c0.2-0.1,0.5-0.1,0.8-0.1c0.3,0,0.6,0.1,0.8,0.1C83.7,143,83.8,143.1,83.8,143.1z"
				/>
		</g>
	</g>
	<g>
		<path class="st23" d="M143.6,121.4c0.2-0.2,0.2-0.6,0-0.8l-2-2.4c-0.1-0.1-0.3-0.2-0.4-0.2c-0.2,0-0.3,0-0.5,0.2
			c-0.2,0.1-4,3.3-9.3,0.6c-3.9-1.9-6.5-1.4-7.8-0.7l0.1-1.3c0-0.4-0.3-0.7-0.6-0.7l-4.7-0.2c-0.4,0-0.7,0.3-0.7,0.6l-0.5,13
			c0,0.4,0.3,0.7,0.6,0.7l4.3,0.2c0.4,0,0.7-0.3,0.7-0.6l0.1-2.8c0.2-0.2,0.6-0.7,1.2-0.8c0.7-0.1,1.3,0.5,1.7,1
			c1,1.2,2,1.6,2.9,1.8c-3.5,2.7-8.8,8.2-9.1,16.7c0,0.4,0.3,0.7,0.6,0.7l15.5,0.6c0.2,0,0.4-0.1,0.5-0.2c0.1-0.2,0.2-0.4,0.1-0.6
			c0,0-0.7-3.1-0.1-7.7C136.6,134.2,138.3,127.8,143.6,121.4z"/>
		<path class="st22" d="M143.6,122.7c0.2-0.2,0.2-0.6,0-0.8l-2-2.4c-0.1-0.1-0.3-0.2-0.4-0.2c-0.2,0-0.3,0-0.5,0.2
			c-0.2,0.1-4,3.3-9.3,0.6c-3.9-1.9-6.5-1.4-7.8-0.7l0.1-1.3c0-0.4-0.3-0.7-0.6-0.7l-4.7-0.2c-0.4,0-0.7,0.3-0.7,0.6l-0.5,13
			c0,0.4,0.3,0.7,0.6,0.7l4.3,0.2c0.4,0,0.7-0.3,0.7-0.6l0.1-2.8c0.2-0.2,0.6-0.7,1.2-0.8c0.7-0.1,1.3,0.5,1.7,1
			c1,1.2,2,1.6,2.9,1.8c-3.5,2.7-8.8,8.2-9.1,16.7c0,0.4,0.3,0.7,0.6,0.7l15.5,0.6c0.2,0,0.4-0.1,0.5-0.2c0.1-0.2,0.2-0.4,0.1-0.6
			c0,0-0.7-3.1-0.1-7.7C136.5,135.6,138.3,129.2,143.6,122.7z"/>
		<g>
			
				<linearGradient id="SVGID_00000104665372176667363860000007487731165537416630_" gradientUnits="userSpaceOnUse" x1="131.7055" y1="132.0891" x2="131.7055" y2="115.1129" gradientTransform="matrix(0.9992 4.030000e-02 -4.030000e-02 0.9992 3.7588 -4.2896)">
				<stop  offset="2.580430e-02" style="stop-color:#8336FF"/>
				<stop  offset="0.8166" style="stop-color:#200848"/>
			</linearGradient>
			<path style="fill:url(#SVGID_00000104665372176667363860000007487731165537416630_);" d="M118.1,117.1l-0.5,13l4.3,0.2l0.1-3
				c0,0,1.7-2.8,4.1,0.1c2.4,2.9,4.8,1,5.9,0.7c0,0-11.5,5.6-12,18.3l15.5,0.6c0,0-2.9-12.5,7.5-25.3l-2-2.4c0,0-4.2,3.6-10.1,0.7
				c-5.8-2.9-8.3,0-8.3,0l0.1-2.6L118.1,117.1z"/>
			<path class="st25" d="M135.5,146.9l-15.5-0.6c0.5-12.3,11.3-17.9,12-18.2c-1.1,0.3-3.5,2.1-5.9-0.7c-2.4-2.9-4.1-0.1-4.1-0.1
				l-0.1,3l-4.3-0.2l0.5-13l4.7,0.2l-0.1,2.6c0,0,2.4-2.9,8.3,0c5.8,2.9,10.1-0.7,10.1-0.7l2,2.4
				C132.6,134.4,135.5,146.9,135.5,146.9z"/>
			<path class="st22" d="M130.1,130.7c0,0-0.2,0.2-0.6,0.5c-0.4,0.3-0.8,0.8-1.4,1.4c-0.5,0.6-1.1,1.3-1.7,2.1
				c-0.3,0.4-0.6,0.8-0.9,1.3c-0.3,0.4-0.6,0.9-0.8,1.4c-0.3,0.5-0.5,0.9-0.8,1.4c-0.2,0.5-0.5,0.9-0.7,1.4
				c-0.2,0.5-0.4,0.9-0.6,1.3c-0.2,0.4-0.3,0.8-0.5,1.2c-0.1,0.4-0.3,0.7-0.4,1c-0.1,0.3-0.2,0.6-0.3,0.8c-0.1,0.5-0.2,0.7-0.2,0.7
				s0.1-0.3,0.1-0.7c0-0.2,0.1-0.5,0.2-0.8c0.1-0.3,0.2-0.7,0.3-1.1c0.1-0.4,0.2-0.8,0.4-1.3c0.2-0.4,0.3-0.9,0.5-1.4
				c0.2-0.5,0.4-0.9,0.7-1.4c0.3-0.5,0.5-1,0.8-1.4c0.3-0.5,0.6-0.9,0.9-1.4c0.3-0.4,0.6-0.9,0.9-1.3c0.3-0.4,0.6-0.8,1-1.1
				c0.3-0.3,0.6-0.7,0.9-0.9c0.6-0.6,1.1-1,1.5-1.3C129.9,130.8,130.1,130.7,130.1,130.7z"/>
			<path class="st22" d="M124.2,120.2c0,0,0.1,0,0.2-0.1c0.1-0.1,0.3-0.1,0.5-0.2c0.2-0.1,0.5-0.1,0.8-0.2c0.3-0.1,0.7-0.1,1.1-0.1
				c0.2,0,0.4,0,0.6,0.1c0.2,0,0.5,0,0.7,0.1c0.5,0.1,1,0.2,1.4,0.4c0.2,0.1,0.5,0.2,0.7,0.3c0.2,0.1,0.5,0.2,0.7,0.3
				c0.5,0.2,1,0.4,1.5,0.5c1,0.3,2.1,0.5,3.1,0.5c1,0,1.9,0,2.7-0.1c0.4-0.1,0.7-0.2,1.1-0.3c0.3-0.1,0.6-0.2,0.8-0.3
				c0.2-0.1,0.4-0.2,0.5-0.3c0.1-0.1,0.2-0.1,0.2-0.1s-0.1,0-0.1,0.1c-0.1,0.1-0.2,0.2-0.4,0.3c-0.2,0.1-0.5,0.3-0.8,0.4
				c-0.3,0.1-0.7,0.3-1.1,0.4c-0.8,0.2-1.8,0.3-2.8,0.3c-1,0-2.1-0.2-3.2-0.4c-0.5-0.2-1-0.3-1.6-0.6c-0.2-0.1-0.5-0.2-0.7-0.4
				c-0.2-0.1-0.5-0.2-0.7-0.3c-0.4-0.2-0.9-0.4-1.3-0.5c-0.2-0.1-0.4-0.1-0.6-0.1c-0.2,0-0.4-0.1-0.6-0.1c-0.4,0-0.8,0-1.1,0
				c-0.3,0-0.6,0.1-0.8,0.1C124.4,120.1,124.2,120.2,124.2,120.2z"/>
			<path class="st22" d="M138.5,126.5c0,0,0,0.1-0.1,0.2c-0.1,0.1-0.2,0.3-0.3,0.5c-0.1,0.2-0.3,0.5-0.4,0.8
				c-0.2,0.3-0.4,0.7-0.5,1.1c-0.2,0.4-0.4,0.9-0.6,1.3c-0.2,0.5-0.3,1-0.5,1.5c-0.2,0.5-0.4,1.1-0.5,1.6c-0.1,0.6-0.3,1.2-0.4,1.7
				c-0.1,0.6-0.3,1.2-0.4,1.7c-0.1,0.6-0.2,1.2-0.3,1.7c-0.1,0.6-0.2,1.1-0.3,1.6c0,0.5-0.1,1-0.1,1.4c-0.2,1.8-0.3,3-0.3,3
				s0-1.2,0-3c0-0.5,0-0.9,0-1.5c0-0.5,0.1-1.1,0.2-1.6c0.1-0.6,0.2-1.1,0.2-1.7c0.1-0.6,0.2-1.2,0.4-1.8c0.1-0.6,0.3-1.2,0.4-1.8
				c0.2-0.6,0.4-1.1,0.6-1.7c0.2-0.5,0.4-1.1,0.6-1.5c0.2-0.5,0.4-0.9,0.6-1.3c0.2-0.4,0.4-0.8,0.6-1.1c0.2-0.3,0.4-0.6,0.5-0.8
				C138.3,126.7,138.5,126.5,138.5,126.5z"/>
			<path class="st22" d="M120.9,129.1c0,0-0.1,0.1-0.4,0.1c-0.2,0.1-0.5,0.1-0.8,0.1c-0.3,0-0.6-0.1-0.8-0.1
				c-0.2-0.1-0.3-0.2-0.3-0.2c0,0,0.1-0.1,0.4-0.1c0.2-0.1,0.5-0.1,0.8-0.1c0.3,0,0.6,0.1,0.8,0.1
				C120.8,129.1,120.9,129.1,120.9,129.1z"/>
		</g>
	</g>
	<g>
		<path class="st22" d="M82.5,111.7c-1.3,3.5-1.1,7.3,0.9,10.2c-0.6,0.9-0.6,2,0.1,2.7c0.7,0.7,1.9,0.8,2.9,0.1
			c4.3,2.5,10.5,1.4,14.6-3c2.5-2.7,3.8-6,3.8-9.1L82.5,111.7z"/>
		<path class="st28" d="M83.4,111.7c-1.2,3.2-0.9,6.7,0.8,9.3c-0.5,0.8-0.5,1.8,0.1,2.5c0.6,0.7,1.8,0.7,2.7,0.1
			c4,2.3,9.6,1.3,13.4-2.7c2.3-2.4,3.4-5.4,3.5-8.3L83.4,111.7z"/>
		<g>
			<path class="st29" d="M93.2,123.6c-0.1,0.2-0.5,0.2-0.8,0c-0.4-0.2-0.6-0.5-0.5-0.7c0.1-0.2,0.5-0.1,0.8,0
				C93.1,123.2,93.3,123.5,93.2,123.6z"/>
			<path class="st29" d="M93.3,122.3c-0.1,0.1-0.3,0.1-0.6,0c-0.2-0.1-0.4-0.3-0.3-0.5c0.1-0.1,0.3-0.1,0.6,0
				C93.2,121.9,93.4,122.1,93.3,122.3z"/>
			<path class="st29" d="M94.3,123.6c-0.1,0.1-0.3,0-0.5-0.3c-0.2-0.2-0.2-0.5-0.1-0.6c0.1-0.1,0.3,0,0.5,0.3
				C94.4,123.2,94.4,123.5,94.3,123.6z"/>
		</g>
		<g>
			<path class="st30" d="M104.3,112.5c0,3-1.3,6.3-3.6,8.8c-2.3,2.4-5.2,3.9-8.3,4.1c-2.1,0.2-4.1-0.3-5.8-1.2l-0.3-0.2l-0.3,0.2
				c-0.3,0.2-0.7,0.4-1.1,0.4c-0.5,0-0.9-0.1-1.2-0.4c-0.5-0.5-0.5-1.3,0-2.1l0.2-0.3l-0.2-0.3c-1.9-2.8-2.1-6.5-0.8-9.9l-1.1,0
				c-1.3,3.5-1.1,7.3,0.8,10.2c-0.5,1.1-0.4,2.3,0.3,3c0.5,0.5,1.2,0.8,2,0.7c0.4,0,0.9-0.2,1.3-0.4c1.8,1,3.9,1.4,6.1,1.2
				c3.3-0.3,6.5-1.8,8.9-4.4c2.6-2.7,3.9-6.1,3.9-9.4L104.3,112.5z"/>
		</g>
	</g>
	<g>
		<path class="st22" d="M100.3,171.7c0,0,3.3-0.2,5.2,4.7C105.4,176.4,100.2,176.4,100.3,171.7z"/>
		<path class="st22" d="M97.4,173.2l2.9-3.4c0,0,0.7,0.5,0.8,0.9l-3,3.3C98.2,174,97.7,173.4,97.4,173.2z"/>
		<path class="st22" d="M100.2,179.9c-0.2-1-0.6-2-1.1-3c0.2-1-0.2-2.3-1.1-3.2c-1.2-1.3-2.9-1.6-4.1-1c-4.1-1.4-9.2,0-12.8,3.8
			c-0.8,0.8-1.4,1.7-1.9,2.6L100.2,179.9z"/>
		<path class="st31" d="M100.4,171.8c0,0,0.4,3.5,4.9,4.3C105.3,176.1,103.9,171.9,100.4,171.8z"/>
		<polygon class="st32" points="97.8,173.7 100.8,170.1 101.2,170.7 98.1,173.9 		"/>
		<path class="st28" d="M99.2,179.8c-0.2-0.9-0.5-1.8-1-2.7c0.2-1-0.2-2.1-1-3c-1.1-1.2-2.2-1.7-3.3-1.1c-3.8-1.2-8.9,0.2-12.2,3.7
			c-0.7,0.7-1.2,1.5-1.7,2.3L99.2,179.8z"/>
		<g>
			<path class="st30" d="M98.2,174.6l-0.3-0.3c-0.1-0.1-0.5-0.6-0.7-0.7l-0.3-0.2l3.4-4l0.3,0.2c0.1,0.1,0.8,0.6,1,1.1l0.1,0.2
				L98.2,174.6z M98,173.2c0.1,0.1,0.2,0.2,0.2,0.2l2.5-2.8c-0.1-0.1-0.2-0.2-0.3-0.3L98,173.2z"/>
		</g>
		<g>
			<path class="st30" d="M105.5,176.7C105.4,176.7,105.4,176.7,105.5,176.7c-0.1,0-2.6,0-4.2-1.6c-0.9-0.9-1.3-2-1.3-3.5
				c0-0.2,0.1-0.3,0.3-0.3c0.1,0,3.5-0.2,5.5,4.9c0,0,0,0.1,0,0.2C105.8,176.6,105.7,176.7,105.5,176.7
				C105.5,176.7,105.5,176.7,105.5,176.7z M100.6,172c0.1,1.1,0.4,2,1.1,2.6c1,1,2.4,1.3,3.2,1.4C103.5,172.7,101.4,172.1,100.6,172
				z"/>
		</g>
		<g>
			<path class="st30" d="M79.7,179.1c0.5-0.8,1-1.5,1.7-2.2c2.3-2.4,5.2-3.9,8.3-4.1c1.4-0.1,2.8,0,4,0.5l0.2,0.1l0.2-0.1
				c0.2-0.1,0.5-0.2,0.8-0.2c0.9-0.1,1.9,0.4,2.7,1.1c0.8,0.8,1.1,1.9,1,2.8l0,0.2l0.1,0.2c0.5,0.8,0.8,1.7,1,2.7l1,0
				c-0.2-1.1-0.6-2.1-1.1-3.1c0.1-1.2-0.3-2.5-1.3-3.5c-1-1-2.3-1.6-3.5-1.5c-0.4,0-0.7,0.1-1,0.3c-1.3-0.4-2.8-0.6-4.2-0.4
				c-3.3,0.3-6.5,1.8-8.9,4.4c-0.8,0.9-1.5,1.9-2.1,2.9L79.7,179.1z"/>
		</g>
	</g>
	<g>
		<path class="st22" d="M70.3,178.7l0.8,0c-1.9-4.9-5.1-4.7-5.1-4.7C66,177.6,68.9,178.5,70.3,178.7z"/>
		<path class="st22" d="M63.2,175.6l2.9-3.4c0,0,0.7,0.5,0.8,0.9l-3,3.3C64,176.3,63.5,175.8,63.2,175.6z"/>
		<path class="st22" d="M64.9,178.5c-0.1-0.8-0.5-1.7-1.1-2.4c-1.2-1.3-2.9-1.6-4.1-1c-3.7-1.2-8.2-0.2-11.7,2.7L64.9,178.5z"/>
		<path class="st31" d="M66.2,174.1c0,0,0.4,3.5,4.9,4.3C71.1,178.4,69.7,174.2,66.2,174.1z"/>
		<polygon class="st32" points="63.6,176 66.6,172.5 66.9,173.1 63.8,176.3 		"/>
		<path class="st28" d="M64,178.4c-0.1-0.6-0.5-1.3-1-1.8c-1.1-1.2-2.2-1.7-3.3-1.1c-3.3-1.1-7.5-0.1-10.7,2.4L64,178.4z"/>
		<g>
			<path class="st30" d="M64,176.9l-0.3-0.3c-0.1-0.1-0.5-0.6-0.7-0.7l-0.3-0.2l3.4-4l0.3,0.2c0.1,0.1,0.8,0.6,1,1.1l0.1,0.2
				L64,176.9z M63.7,175.5c0.1,0.1,0.2,0.2,0.2,0.2l2.5-2.8c-0.1-0.1-0.2-0.2-0.3-0.3L63.7,175.5z"/>
		</g>
		<g>
			<path class="st30" d="M68.7,178.6l2.8,0.1c0,0,0,0,0,0c0-0.1,0-0.1,0-0.2c-2-5.1-5.3-4.9-5.5-4.9c-0.2,0-0.3,0.2-0.3,0.3
				c0,1.4,0.4,2.6,1.3,3.5C67.5,178,68.1,178.4,68.7,178.6z M70.7,178.4c-0.8-0.1-2.2-0.4-3.2-1.4c-0.7-0.7-1-1.5-1.1-2.6
				C67.2,174.5,69.2,175.1,70.7,178.4z"/>
		</g>
		<g>
			<path class="st30" d="M48.7,177.8c2-1.6,4.3-2.5,6.7-2.7c1.4-0.1,2.8,0,4,0.5l0.2,0.1l0.2-0.1c0.2-0.1,0.5-0.2,0.8-0.2
				c0.9-0.1,1.9,0.4,2.7,1.1c0.6,0.6,0.9,1.3,1,2l1,0c-0.1-1-0.5-2-1.3-2.8c-1-1-2.3-1.6-3.5-1.5c-0.4,0-0.7,0.1-1,0.3
				c-1.3-0.4-2.8-0.6-4.2-0.4c-3,0.2-5.8,1.6-8.1,3.7L48.7,177.8z"/>
		</g>
	</g>
	<g>
		<path class="st22" d="M133.7,159.7c-6.2-3.7-13.5-2.9-16.3,1.7c-0.1,0.2-0.2,0.4-0.3,0.6l0,0c-3.5,6.5-1.6,14.5,4.4,18.1
			c0.5,0.3,1,0.6,1.5,0.8l8.9,0.4c3.2-1,6.1-3.2,8-6.4l0,0C142.6,170.2,139.8,163.4,133.7,159.7z"/>
		<g>
			<path class="st33" d="M130.2,176.7l-1.7-7l-3.3,5.4C126.8,176.1,128.5,176.6,130.2,176.7z"/>
			<path class="st33" d="M120,162.3l7.7,4.6l-1.8-7.3c-0.8,0-1.6,0.1-2.3,0.3C122.1,160.4,120.8,161.1,120,162.3z"/>
			<path class="st33" d="M120.4,170.9c0.9,1.4,2.2,2.7,3.7,3.7l3.3-5.4L120.4,170.9z"/>
			<path class="st33" d="M136.8,165.5c-0.9-1.4-2.2-2.6-3.7-3.6l-3.2,5.4L136.8,165.5z"/>
			<path class="st33" d="M119.4,163.3c-0.9,1.9-0.7,4.3,0.4,6.5l7.4-1.8L119.4,163.3z"/>
			<path class="st33" d="M133.8,159.8c-6-3.6-13.1-2.9-15.8,1.6c-2.7,4.5,0,11.1,6,14.7c6,3.6,13.1,2.9,15.8-1.6
				C142.6,170,139.9,163.5,133.8,159.8z M138.5,173.9c0,0.1,0,0.1-0.1,0.1c0,0-0.1,0.1-0.1,0.1c-1,1.6-2.5,2.7-4.5,3.2
				c-0.9,0.3-1.9,0.4-2.9,0.3c0,0,0,0,0,0c-2.2,0-4.5-0.7-6.5-1.9c-0.1,0-0.2,0-0.2-0.1c-0.1,0-0.1-0.1-0.2-0.2
				c-5.3-3.2-7.6-9.1-5.2-13.2c0,0,0-0.1,0.1-0.1c0,0,0.1-0.1,0.1-0.1c1-1.5,2.5-2.6,4.4-3.1c0.9-0.2,1.9-0.4,2.9-0.3c0,0,0,0,0,0
				c0,0,0,0,0,0c0.1,0,0.3,0,0.4,0c2.1,0.1,4.2,0.7,6.2,1.9c0.1,0,0.2,0,0.3,0.1c0.1,0.1,0.2,0.2,0.2,0.3c1.9,1.2,3.4,2.8,4.5,4.5
				c0.1,0.1,0.3,0.2,0.3,0.4c0,0.1,0,0.1,0,0.2c0.2,0.3,0.3,0.7,0.5,1C139.7,169.5,139.6,171.9,138.5,173.9z"/>
			<path class="st33" d="M127.2,159.7l1.7,6.9l3.2-5.4C130.5,160.4,128.8,159.8,127.2,159.7z"/>
			<path class="st33" d="M137.5,166.6l-7.2,1.8l7.6,4.6c0.8-1.7,0.7-3.6-0.1-5.6C137.7,167.1,137.6,166.9,137.5,166.6z"/>
			<path class="st33" d="M131.4,176.8c0.7,0,1.5-0.1,2.2-0.3c1.6-0.4,2.8-1.3,3.7-2.4l-7.6-4.6L131.4,176.8z"/>
		</g>
		<path class="st34" d="M121.3,179.2c0,0,1.5,1.2,3.9,1.8l4.7,0.2c2.2-0.4,4.7-1.4,7.3-3.7c0,0-4.7,3.7-12.7-0.2c0,0-8-3.6-8.3-11.8
			C116.3,165.4,113.8,173.1,121.3,179.2z"/>
		<g>
			<path class="st30" d="M134.8,178.9c-3.5,1-7.8,0.2-11.5-2c-6.3-3.8-9.1-10.8-6.2-15.7c1.1-1.9,3-3.2,5.3-3.8
				c3.5-1,7.8-0.2,11.5,2c3.1,1.8,5.4,4.5,6.6,7.4c1.2,3,1.1,5.9-0.3,8.3C139,177,137.1,178.3,134.8,178.9z M122.6,158.1
				c-2.2,0.6-3.8,1.8-4.9,3.5c-2.7,4.5,0,11.1,6,14.7c3.5,2.1,7.6,2.8,10.9,1.9c2.2-0.6,3.8-1.8,4.9-3.5c1.3-2.2,1.4-4.9,0.3-7.6
				c-1.1-2.8-3.4-5.3-6.3-7.1C130,157.9,125.9,157.2,122.6,158.1z"/>
		</g>
		<g>
			<g>
				<path class="st30" d="M132.8,181.3c2.9-1.1,5.5-3.3,7.3-6.2l-0.6-0.4c-2.1,3.5-5.4,5.7-8.9,6.5L132.8,181.3z"/>
				<path class="st30" d="M121.3,180.4c0.3,0.2,0.5,0.3,0.8,0.4l2.1,0.1c-0.9-0.3-1.7-0.6-2.5-1.1c-5.8-3.5-7.7-11.2-4.2-17.6
					l-0.6-0.3C113.2,168.6,115.1,176.7,121.3,180.4z"/>
			</g>
		</g>
		<path class="st30" d="M137.9,166.1l-0.1-0.5l-8.2,2c-0.1-0.1-0.1-0.1-0.2-0.2l3.8-6.4l-0.4-0.3l-3.8,6.4c-0.1,0-0.2-0.1-0.3-0.1
			l-2-8.2l-0.5,0.1l2,8.1c0,0,0,0,0,0c-0.1,0-0.3,0.1-0.4,0.2l-8.6-5.2l-0.3,0.4l8.6,5.2c0,0.1,0,0.3,0,0.4l-8.1,2l0.1,0.5l8.2-2
			c0.1,0.1,0.1,0.1,0.2,0.2l-3.9,6.4l0.4,0.3l3.9-6.4c0.1,0,0.2,0.1,0.3,0.1l2,8.2l0.5-0.1l-2-8.1c0,0,0,0,0.1,0
			c0.1,0,0.3-0.1,0.4-0.2l8.5,5.1l0.3-0.4l-8.5-5.1c0-0.1,0-0.3,0-0.5L137.9,166.1z"/>
		<path class="st33" d="M129.2,168.5c-0.1,0.2-0.5,0.2-0.7,0.1c-0.3-0.2-0.4-0.5-0.3-0.7c0.1-0.2,0.5-0.2,0.7-0.1
			C129.2,168,129.3,168.3,129.2,168.5z"/>
		<g>
			<path class="st30" d="M133.9,177.4c-3,0.8-6.7,0.2-9.8-1.7c-5.4-3.3-7.8-9.3-5.3-13.4c1-1.6,2.5-2.7,4.5-3.3
				c3-0.8,6.7-0.2,9.8,1.7c5.4,3.3,7.8,9.3,5.3,13.4C137.5,175.7,135.9,176.9,133.9,177.4z M123.5,159.7c-1.8,0.5-3.2,1.5-4.1,3
				c-2.3,3.8,0,9.4,5.1,12.4c3,1.8,6.4,2.4,9.3,1.6c1.8-0.5,3.2-1.5,4.1-3c2.3-3.8,0-9.4-5.1-12.4
				C129.8,159.5,126.3,158.9,123.5,159.7z"/>
		</g>
		<g>
			<path class="st35" d="M126.9,180.7c-0.1,0.1-0.3,0-0.5-0.1c-0.2-0.2-0.3-0.4-0.2-0.4c0.1-0.1,0.3,0,0.5,0.1
				C126.9,180.4,127,180.6,126.9,180.7z"/>
			<path class="st35" d="M127.1,179.9c-0.1,0.1-0.2,0-0.3-0.1c-0.1-0.1-0.2-0.2-0.1-0.3c0.1-0.1,0.2,0,0.3,0.1
				C127.1,179.7,127.2,179.8,127.1,179.9z"/>
			<path class="st35" d="M127.6,180.8c-0.1,0-0.2-0.1-0.3-0.2c-0.1-0.2-0.1-0.3,0-0.3c0.1,0,0.2,0.1,0.3,0.2
				C127.7,180.6,127.7,180.7,127.6,180.8z"/>
		</g>
		<g>
			<g>
				<path class="st36" d="M124.6,167.9c-0.1,0.1-0.3,0-0.5-0.1c-0.2-0.2-0.3-0.4-0.2-0.4c0.1-0.1,0.3,0,0.5,0.1
					C124.6,167.6,124.7,167.8,124.6,167.9z"/>
				<path class="st36" d="M124.8,167.1c-0.1,0.1-0.2,0-0.3-0.1c-0.1-0.1-0.2-0.2-0.1-0.3c0.1-0.1,0.2,0,0.3,0.1
					C124.8,166.9,124.9,167,124.8,167.1z"/>
				<path class="st36" d="M125.3,168c-0.1,0-0.2-0.1-0.3-0.2c-0.1-0.2-0.1-0.3,0-0.3c0.1,0,0.2,0.1,0.3,0.2
					C125.4,167.8,125.4,168,125.3,168z"/>
			</g>
			<g>
				<path class="st36" d="M124.1,172c-0.1,0.1-0.3,0-0.5-0.1c-0.2-0.2-0.3-0.4-0.2-0.4c0.1-0.1,0.3,0,0.5,0.1
					C124.1,171.7,124.2,171.9,124.1,172z"/>
				<path class="st36" d="M124.3,171.2c-0.1,0.1-0.2,0-0.3-0.1c-0.1-0.1-0.2-0.2-0.1-0.3c0.1-0.1,0.2,0,0.3,0.1
					C124.3,170.9,124.3,171.1,124.3,171.2z"/>
				<path class="st36" d="M124.7,172c-0.1,0-0.2-0.1-0.3-0.2c-0.1-0.2-0.1-0.3,0-0.3c0.1,0,0.2,0.1,0.3,0.2
					C124.8,171.8,124.8,172,124.7,172z"/>
			</g>
			<g>
				<path class="st36" d="M128.1,173.7c-0.1,0.1-0.3,0-0.5-0.1c-0.2-0.2-0.3-0.4-0.2-0.4c0.1-0.1,0.3,0,0.5,0.1
					C128.1,173.4,128.2,173.6,128.1,173.7z"/>
				<path class="st36" d="M128.3,172.9c-0.1,0.1-0.2,0-0.3-0.1c-0.1-0.1-0.2-0.2-0.1-0.3c0.1-0.1,0.2,0,0.3,0.1
					C128.3,172.7,128.3,172.8,128.3,172.9z"/>
				<path class="st36" d="M128.8,173.7c-0.1,0-0.2-0.1-0.3-0.2c-0.1-0.2-0.1-0.3,0-0.3c0.1,0,0.2,0.1,0.3,0.2
					C128.8,173.6,128.8,173.7,128.8,173.7z"/>
			</g>
			<g>
				<path class="st36" d="M131.5,172.2c0,0.1-0.3,0.1-0.5,0c-0.2-0.1-0.4-0.2-0.3-0.4c0-0.1,0.3-0.1,0.5,0
					C131.4,171.9,131.6,172.1,131.5,172.2z"/>
				<path class="st36" d="M131.5,171.3c0,0.1-0.2,0.1-0.3,0c-0.2-0.1-0.3-0.2-0.2-0.2c0-0.1,0.2-0.1,0.3,0
					C131.4,171.2,131.5,171.3,131.5,171.3z"/>
				<path class="st36" d="M132.2,172c-0.1,0.1-0.2,0-0.3-0.1c-0.1-0.1-0.2-0.3-0.1-0.3c0.1-0.1,0.2,0,0.3,0.1
					C132.2,171.8,132.2,172,132.2,172z"/>
			</g>
			<g>
				<path class="st36" d="M134.9,169.6c-0.1,0.1-0.3,0-0.5-0.1c-0.2-0.2-0.3-0.4-0.2-0.4c0.1-0.1,0.3,0,0.5,0.1
					C134.9,169.3,135,169.5,134.9,169.6z"/>
				<path class="st36" d="M135.1,168.8c-0.1,0.1-0.2,0-0.3-0.1c-0.1-0.1-0.2-0.2-0.1-0.3c0.1-0.1,0.2,0,0.3,0.1
					C135.1,168.6,135.2,168.8,135.1,168.8z"/>
				<path class="st36" d="M135.6,169.7c-0.1,0-0.2-0.1-0.3-0.2c-0.1-0.2-0.1-0.3,0-0.3c0.1,0,0.2,0.1,0.3,0.2
					C135.7,169.5,135.7,169.7,135.6,169.7z"/>
			</g>
			<g>
				<path class="st36" d="M131.7,165.4c-0.1-0.1,0-0.3,0.2-0.4c0.2-0.1,0.4-0.2,0.5-0.1c0.1,0.1,0,0.3-0.2,0.4
					C131.9,165.4,131.7,165.5,131.7,165.4z"/>
				<path class="st36" d="M132.4,165.8c0-0.1,0-0.2,0.2-0.3c0.1-0.1,0.3-0.1,0.3-0.1c0.1,0.1,0,0.2-0.2,0.3
					C132.6,165.8,132.5,165.8,132.4,165.8z"/>
				<path class="st36" d="M131.4,166c0-0.1,0.1-0.2,0.3-0.2c0.2,0,0.3,0,0.3,0.1c0,0.1-0.1,0.2-0.3,0.2
					C131.6,166.1,131.5,166.1,131.4,166z"/>
			</g>
			<g>
				<path class="st36" d="M125.4,163.8c-0.1,0.1-0.3,0-0.5-0.1c-0.2-0.2-0.3-0.4-0.2-0.4c0.1-0.1,0.3,0,0.5,0.1
					C125.4,163.5,125.5,163.7,125.4,163.8z"/>
				<path class="st36" d="M125.6,163c-0.1,0.1-0.2,0-0.3-0.1c-0.1-0.1-0.2-0.2-0.1-0.3c0.1-0.1,0.2,0,0.3,0.1
					C125.6,162.8,125.6,163,125.6,163z"/>
				<path class="st36" d="M126,163.9c-0.1,0-0.2-0.1-0.3-0.2c-0.1-0.2-0.1-0.3,0-0.3c0.1,0,0.2,0.1,0.3,0.2
					C126.1,163.7,126.1,163.9,126,163.9z"/>
			</g>
			<g>
				<path class="st36" d="M128.9,164.2c-0.1,0-0.2-0.2-0.2-0.4c0-0.2,0.1-0.4,0.2-0.5c0.1,0,0.2,0.2,0.2,0.4
					C129.1,164,129.1,164.2,128.9,164.2z"/>
				<path class="st36" d="M129.7,163.8c-0.1,0-0.2-0.1-0.2-0.3c0-0.2,0-0.3,0.1-0.3c0.1,0,0.2,0.1,0.2,0.3
					C129.8,163.7,129.7,163.8,129.7,163.8z"/>
				<path class="st36" d="M129.3,164.8c-0.1,0-0.1-0.2,0-0.3c0.1-0.2,0.2-0.3,0.2-0.2c0.1,0,0.1,0.2,0,0.3
					C129.5,164.7,129.4,164.8,129.3,164.8z"/>
			</g>
		</g>
	</g>
	<g>
		<path class="st22" d="M72.6,111.3l-25.3-1c-0.3,4.9,1.8,9.6,6.1,12.2c6.2,3.7,14.4,1.4,18.4-5.2l0,0
			C72.7,115.4,73,113.3,72.6,111.3z"/>
		<g>
			<path class="st33" d="M62,119l-1.7-7l-3.3,5.4C58.6,118.4,60.4,118.9,62,119z"/>
			<path class="st33" d="M52.2,113.2c0.9,1.4,2.2,2.7,3.7,3.7l3.3-5.4L52.2,113.2z"/>
			<path class="st33" d="M51,110.4c0.2,0.6,0.4,1.1,0.7,1.7l5.7-1.4L51,110.4z"/>
			<path class="st33" d="M71.1,111.2c0.3,1.8,0.1,3.5-0.8,5c0,0.1,0,0.1-0.1,0.1c0,0-0.1,0.1-0.1,0.1c-1,1.6-2.5,2.7-4.5,3.2
				c-0.9,0.3-1.9,0.4-2.9,0.3c0,0,0,0,0,0c-2.2,0-4.5-0.7-6.5-1.9c-0.1,0-0.2,0-0.2-0.1c-0.1,0-0.1-0.1-0.2-0.2
				c-3.1-1.9-5.1-4.7-5.8-7.5l-0.7,0c0.9,3,3.3,6,6.7,8.1c6,3.6,13.1,2.9,15.8-1.6c1-1.7,1.3-3.6,0.9-5.6L71.1,111.2z"/>
			<path class="st33" d="M62.3,110.9l7.4,4.4c0.6-1.2,0.7-2.7,0.4-4.1L62.3,110.9z"/>
			<path class="st33" d="M63.3,119.1c0.7,0,1.5-0.1,2.2-0.3c1.6-0.4,2.8-1.3,3.7-2.4l-7.6-4.6L63.3,119.1z"/>
		</g>
		<path class="st34" d="M56.4,119.5c0,0-6.3-2.9-7.9-9.2l-0.8,0c-0.1,2.8,0.5,7.3,5.4,11.2c0,0,7.2,5.8,15.9-1.7
			C69.1,119.8,64.4,123.5,56.4,119.5z"/>
		<g>
			<path class="st30" d="M72.2,111.2c0.4,2.1,0.2,4.1-0.8,5.8c-1,1.7-2.7,2.9-4.9,3.5c-3.3,0.9-7.4,0.2-10.9-1.9
				c-3.5-2.1-5.8-5.2-6.7-8.3l-0.8,0c0.8,3.4,3.3,6.7,7.1,9c3.7,2.2,8,2.9,11.5,2c2.3-0.6,4.2-2,5.3-3.8c1.1-1.8,1.4-3.9,1-6.1
				L72.2,111.2z"/>
		</g>
		<g>
			<g>
				<path class="st30" d="M53.5,122.1c-4.1-2.5-6.2-7.1-5.9-11.8l-0.7,0c-0.3,5,1.9,9.9,6.2,12.5c3.1,1.9,6.8,2.3,10.2,1.3
					c3.5-0.9,6.7-3.3,8.7-6.7l-0.6-0.4C67.5,123.4,59.5,125.7,53.5,122.1z"/>
			</g>
		</g>
		<path class="st30" d="M61.7,110.8l-3.1-0.1l-7.3,1.8l0.1,0.5l8.2-2c0.1,0.1,0.1,0.1,0.2,0.2l-3.9,6.4l0.4,0.3l3.9-6.4
			c0.1,0,0.2,0.1,0.3,0.1l2,8.2l0.5-0.1l-2-8.1c0,0,0,0,0.1,0c0.1,0,0.3-0.1,0.4-0.2l8.5,5.1l0.3-0.4L61.7,110.8
			C61.7,110.9,61.7,110.8,61.7,110.8z"/>
		<g>
			<path class="st30" d="M70.4,111.2c0.4,1.7,0.1,3.4-0.7,4.9c-0.9,1.4-2.3,2.5-4.1,3c-2.8,0.8-6.3,0.2-9.3-1.6
				c-2.9-1.8-4.9-4.4-5.7-7l-0.8,0c0.7,2.9,2.9,5.7,6,7.7c3.1,1.9,6.8,2.5,9.8,1.7c2-0.5,3.6-1.7,4.5-3.3c0.9-1.6,1.2-3.4,0.8-5.2
				L70.4,111.2z"/>
		</g>
		<g>
			<path class="st35" d="M58.8,123c-0.1,0.1-0.3,0-0.5-0.1c-0.2-0.2-0.3-0.4-0.2-0.4c0.1-0.1,0.3,0,0.5,0.1
				C58.8,122.7,58.9,122.9,58.8,123z"/>
			<path class="st35" d="M59,122.2c-0.1,0.1-0.2,0-0.3-0.1c-0.1-0.1-0.2-0.2-0.1-0.3c0.1-0.1,0.2,0,0.3,0.1
				C59,122,59.1,122.1,59,122.2z"/>
			<path class="st35" d="M59.5,123.1c-0.1,0-0.2-0.1-0.3-0.2c-0.1-0.2-0.1-0.3,0-0.3c0.1,0,0.2,0.1,0.3,0.2
				C59.5,122.9,59.5,123,59.5,123.1z"/>
		</g>
		<g>
			<g>
				<path class="st36" d="M56,114.3c-0.1,0.1-0.3,0-0.5-0.1c-0.2-0.2-0.3-0.4-0.2-0.4c0.1-0.1,0.3,0,0.5,0.1
					C55.9,114,56,114.2,56,114.3z"/>
				<path class="st36" d="M56.1,113.5c-0.1,0.1-0.2,0-0.3-0.1c-0.1-0.1-0.2-0.2-0.1-0.3c0.1-0.1,0.2,0,0.3,0.1
					C56.1,113.3,56.2,113.4,56.1,113.5z"/>
				<path class="st36" d="M56.6,114.3c-0.1,0-0.2-0.1-0.3-0.2c-0.1-0.2-0.1-0.3,0-0.3c0.1,0,0.2,0.1,0.3,0.2
					C56.7,114.2,56.7,114.3,56.6,114.3z"/>
			</g>
			<g>
				<path class="st36" d="M60,116c-0.1,0.1-0.3,0-0.5-0.1c-0.2-0.2-0.3-0.4-0.2-0.4c0.1-0.1,0.3,0,0.5,0.1
					C60,115.7,60.1,115.9,60,116z"/>
				<path class="st36" d="M60.2,115.2c-0.1,0.1-0.2,0-0.3-0.1c-0.1-0.1-0.2-0.2-0.1-0.3c0.1-0.1,0.2,0,0.3,0.1
					C60.1,115,60.2,115.1,60.2,115.2z"/>
				<path class="st36" d="M60.6,116c-0.1,0-0.2-0.1-0.3-0.2c-0.1-0.2-0.1-0.3,0-0.3c0.1,0,0.2,0.1,0.3,0.2
					C60.7,115.9,60.7,116,60.6,116z"/>
			</g>
			<g>
				<path class="st36" d="M63.4,114.5c0,0.1-0.3,0.1-0.5,0c-0.2-0.1-0.4-0.2-0.3-0.4c0-0.1,0.3-0.1,0.5,0
					C63.3,114.2,63.5,114.4,63.4,114.5z"/>
				<path class="st36" d="M63.3,113.7c0,0.1-0.2,0.1-0.3,0c-0.2-0.1-0.3-0.2-0.2-0.2c0-0.1,0.2-0.1,0.3,0
					C63.3,113.5,63.4,113.6,63.3,113.7z"/>
				<path class="st36" d="M64.1,114.3c-0.1,0.1-0.2,0-0.3-0.1c-0.1-0.1-0.2-0.3-0.1-0.3c0.1-0.1,0.2,0,0.3,0.1
					C64.1,114.1,64.1,114.3,64.1,114.3z"/>
			</g>
			<g>
				<path class="st36" d="M66.8,111.9c-0.1,0.1-0.3,0-0.5-0.1c-0.2-0.2-0.3-0.4-0.2-0.4c0.1-0.1,0.3,0,0.5,0.1
					C66.8,111.7,66.9,111.9,66.8,111.9z"/>
				<path class="st36" d="M67.5,112c-0.1,0-0.2-0.1-0.3-0.2c-0.1-0.2-0.1-0.3,0-0.3c0.1,0,0.2,0.1,0.3,0.2
					C67.5,111.8,67.5,112,67.5,112z"/>
			</g>
		</g>
	</g>
	
		<linearGradient id="SVGID_00000168836547781528511320000003565341753203753121_" gradientUnits="userSpaceOnUse" x1="94.9345" y1="111.9791" x2="94.9345" y2="127.8027" gradientTransform="matrix(0.9992 4.030000e-02 -4.030000e-02 0.9992 3.7588 -4.2896)">
		<stop  offset="0" style="stop-color:#FFFFFF"/>
		<stop  offset="1" style="stop-color:#FFFFFF;stop-opacity:0"/>
	</linearGradient>
	<path style="fill:url(#SVGID_00000168836547781528511320000003565341753203753121_);" d="M150,123.5c-1.6-5.7-3.9-9.2-6.5-9.3
		l-99.3-4l0,0.1c-2.4,0.4-4.7,3.6-6.6,8.7L150,123.5z"/>
</g>
</svg>
