<?xml version="1.0" encoding="utf-8"?>
<!-- Generator: Adobe Illustrator 27.3.1, SVG Export Plug-In . SVG Version: 6.00 Build 0)  -->
<svg version="1.1" id="_x32_" xmlns="http://www.w3.org/2000/svg" xmlns:xlink="http://www.w3.org/1999/xlink" x="0px" y="0px"
	 viewBox="0 0 64 64" style="enable-background:new 0 0 64 64;" xml:space="preserve">
<style type="text/css">
	.st0{fill:#FFFFFF;}
</style>
<g id="SVGRepo_bgCarrier">
</g>
<g id="SVGRepo_tracerCarrier">
</g>
<g id="SVGRepo_iconCarrier">
	<g>
		<path class="st0" d="M51.8,34.5l-1-1.8l-8,4.2L39.9,34l6.7-4.9l-1-1.4l-6.9,5.1l-3.1-3.1l5.9-5.9l-1.2-1.2l-5.9,5.9l-3-3l5.1-6.9
			l-1.4-1L30,24.1l-2.9-2.9l4.2-8l-1.8-1L18.3,33.6l-0.1-0.1l-4,4c-0.7,0.7-1.3,1.6-1.6,2.6c-0.5,1.4-0.5,3,0,4.5
			c0.4,1.5,1.3,3,2.5,4.2c1.7,1.7,3.7,2.6,5.8,2.8c1,0.1,2,0,3-0.3c1-0.3,1.8-0.8,2.6-1.6l4-4l-0.1-0.1L51.8,34.5z M41.1,37.7
			l-4.7,2.5L34.3,38l4.1-3L41.1,37.7z M37.2,33.8l-4.1,3l-2.3-2.3l3.6-3.6L37.2,33.8z M29.5,35.7l2.1,2.1l-4.6,3.3l-1.5-1.5
			L29.5,35.7z M24.3,38.4l-1.5-1.5l3.3-4.6l2.1,2.1L24.3,38.4z M30.2,26.8l2.9,2.9l-3.6,3.6L27.2,31L30.2,26.8z M26.3,22.9l2.7,2.7
			l-3,4.1l-2-2l-0.5,0.5L26.3,22.9z M23,29.2l2,2l-3.3,4.6l-1.3-1.3L23,29.2z M25,48.4c-0.5,0.5-1.1,0.9-1.8,1.1
			c-1,0.3-2.2,0.3-3.3,0c-1.2-0.3-2.3-1-3.3-2c-1.3-1.3-2.1-3-2.2-4.5c-0.1-0.8,0-1.5,0.2-2.2c0.2-0.7,0.6-1.3,1.1-1.8l3.4-3.4
			l9.4,9.4L25,48.4z M28.3,42.4l4.6-3.3l2,2l-5.2,2.7L28.3,42.4z"/>
	</g>
</g>
</svg>
