<?xml version="1.0" encoding="utf-8"?>
<!-- Generator: Adobe Illustrator 27.3.1, SVG Export Plug-In . SVG Version: 6.00 Build 0)  -->
<svg version="1.1" id="Layer_1" xmlns="http://www.w3.org/2000/svg" xmlns:xlink="http://www.w3.org/1999/xlink" x="0px" y="0px"
	 viewBox="0 0 200 200" style="enable-background:new 0 0 200 200;" xml:space="preserve">
<style type="text/css">
	.st0{fill:#FFFFFF;}
</style>
<g>
	<g>
		<path class="st0" d="M101.2,144.8c1.5,1.5,3.1,2.3,4.6,2.3l45,0.8l0,0l0,0c1.5,0,3.1-0.8,4.6-1.5c1.5-1.5,2.3-3.1,2.3-4.6
			l3.1-36.6l0,0c0.8-4.6,2.3-9.2,4.6-13l16.8-22.9l0,0c3.8-6.1,4.6-13.7,2.3-19.8l0,0c-2.3-5.3-6.1-9.2-11.5-10.7
			c-2.3-0.8-3.8-1.5-4.6-3.1c-0.8-1.5,0-3.8,0-5.3l0,0c0.8-2.3,0.8-5.3,0-7.6c-1.5-4.6-6.1-7.6-13-9.9c-6.1-2.3-13-3.1-20.6-3.1
			c-8.4,0-16.8,2.3-22.9,5.3c-7.6,3.8-13,9.2-14.5,15.3C93.6,41,93.6,54,95.8,70.8l0,0c-2.3-0.8-3.8-1.5-6.1-1.5s-4.6-0.8-5.3-2.3
			c-1.5-1.5-1.5-3.8-0.8-5.3l0,0c0.8-3.1,0-5.3-1.5-7.6c-3.1-3.8-7.6-6.1-15.3-6.9c-6.1-0.8-13.7,0-20.6,2.3
			c-8.4,2.3-15.3,6.1-21.4,10.7c-6.9,5.3-9.9,11.5-10.7,18.3c-2.3,24.4,13,51.9,17.6,60.3c0.8,1.5,1.5,3.1,1.5,5.3l7.6,42
			c0,1.5,0.8,3.1,2.3,3.8c1.5,0.8,3.1,1.5,4.6,1.5c0.8,0,0.8,0,1.5,0l44.3-9.9c1.5-0.8,3.1-1.5,3.8-3.1s1.5-3.1,1.5-4.6l-5.3-36.6
			c-0.8-4.6,0-9.2,1.5-13.7l6.1-13.7l-1.5,32.1l0,0C99.7,141,100.4,143.3,101.2,144.8L101.2,144.8z M153.9,140.3L153.9,140.3
			c0,1.5-1.5,2.3-2.3,2.3l0,0l-45,0c-0.8,0-1.5,0-1.5-0.8c-0.8-0.8-0.8-1.5-0.8-1.5v-3.1h50.4L153.9,140.3z M116.5,132.6h-12.2
			l1.5-33.6h7.6L116.5,132.6z M116.5,85.3c0-5.3,3.1-9.9,7.6-13c4.6-2.3,9.9-2.3,14.5,0c4.6,2.3,7.6,7.6,7.6,13l-6.9,47.3H121
			L116.5,85.3z M157.7,103.6l-3.1,29h-11.5l4.6-32.8h9.9l0,0C157.7,101.3,157.7,102.9,157.7,103.6L157.7,103.6z M172.2,41.8h0.8l0,0
			c3.8,0.8,7.6,3.8,9.2,8.4c1.5,4.6,1.5,10.7-2.3,15.3L163,88.4c-8.4-13.7-3.8-20.6-0.8-24.4c3.1-4.6,2.3-10.7,0.8-13.7l0,0
			C166.8,47.9,169.9,44.8,172.2,41.8L172.2,41.8z M102,30.3c1.5-5.3,6.1-9.2,12.2-12.2c6.1-3.1,13-4.6,21.4-4.6
			c14.5-0.8,26.7,3.8,29.8,9.9l0,0c0.8,1.5,0.8,3.1,0,4.6s-1.5,5.3,0,9.2c0.8,1.5,1.5,2.3,2.3,3.1c-9.9,13-21.4,19.1-32.8,19.1
			c-18.3,0-32.1-15.3-35.9-19.1l0,0C100.4,36.5,101.2,33.4,102,30.3L102,30.3z M98.9,45.6c6.1,6.1,19.1,17.6,35.9,17.6l0,0
			c8.4,0,16.8-3.1,24.4-9.2c0.8,2.3,0.8,5.3-0.8,7.6c-3.1,4.6-9.9,13,1.5,31.3l0,0c-0.8,1.5-1.5,2.3-1.5,3.8h-9.9l1.5-9.9l0,0l0,0
			c0-5.3-2.3-9.9-5.3-13.7c-3.1-3.8-8.4-5.3-13.7-5.3s-9.9,2.3-13.7,5.3c-3.8,3.8-5.3,8.4-5.3,13.7l0,0l0.8,9.2h-6.9
			c2.3-6.9,1.5-13.7-2.3-19.1l0,0c-0.8-1.5-1.5-2.3-3.1-3.1C99.7,62.4,98.9,53.2,98.9,45.6L98.9,45.6z M18,76.9
			c0.8-5.3,3.8-10.7,9.2-15.3c5.3-3.8,12.2-7.6,19.8-9.2c8.4-2.3,16.8-3.1,22.1-1.5C50,57.1,37.1,70,30.2,80
			c-3.8,5.3-7.6,11.5-10.7,17.6C18,90.6,17.2,83.8,18,76.9L18,76.9z M34.8,134.9c-3.1-4.6-9.2-16.8-13.7-29.8
			c3.1-7.6,6.9-15.3,12.2-22.1C40.9,72.3,54.6,58.6,76,54c0.8,0.8,1.5,0.8,1.5,1.5c0.8,1.5,1.5,3.1,0.8,4.6c0,2.3,0,5.3,2.3,8.4
			c1.5,2.3,4.6,3.8,8.4,3.8c0.8,0,0.8,0,1.5,0L89,75.4c-4.6-0.8-8.4,0-12.2,3.1c-3.1,3.1-4.6,7.6-3.1,12.2c0.8,4.6,4.6,7.6,8.4,8.4
			l-3.8,7.6c-3.8,7.6-3.1,16,0.8,22.9l-43.5,9.2C36.3,137.2,35.5,135.7,34.8,134.9L34.8,134.9z M94.3,87.6c0,2.3-0.8,3.8-2.3,5.3
			c-1.5,1.5-3.8,2.3-5.3,2.3c-2.3,0-3.8-0.8-5.3-2.3c-1.5-1.5-2.3-3.8-2.3-5.3c0-2.3,0.8-3.8,2.3-5.3c1.5-1.5,3.8-2.3,5.3-2.3
			c2.3,0,3.8,0.8,5.3,2.3C93.6,83,94.3,85.3,94.3,87.6L94.3,87.6z M75.2,161.6l-5.3,1.5l-3.1-17.6l5.3-0.8L75.2,161.6z M37.8,143.3
			l33.6-6.9l0.8,3.1l-32.8,6.9L37.8,143.3z M66.1,163.9l-5.3,0.8l-3.1-17.6l5.3-0.8L66.1,163.9z M56.2,166.2l-5.3,1.5l-3.1-18.3
			l5.3-0.8L56.2,166.2z M42.4,169.3L39.4,151l4.6-0.8l3.1,18.3L42.4,169.3z M43.2,173.9l32.8-7.6l0.8,3.1l-32.8,7.6L43.2,173.9z
			 M93.6,169.3l0.8,3.1l0,0c0,1.5-0.8,2.3-2.3,3.1l-44.3,9.9c-0.8,0-1.5,0-2.3,0c-0.8,0-0.8-0.8-0.8-1.5l-0.8-2.3L93.6,169.3z
			 M92.8,164.7l-12.2,3.1l-5.3-32.1l13-3.1c0,0.8,0,2.3,0,3.1L92.8,164.7z M91.3,119.7L91.3,119.7c-0.8,3.1-1.5,5.3-2.3,8.4
			l-3.8,0.8c-2.3-3.1-3.1-6.1-3.1-9.9s0.8-6.9,2.3-9.9l4.6-9.2c3.1-0.8,6.1-2.3,8.4-4.6c2.3-3.1,3.1-6.1,2.3-9.2
			c-0.8-3.1-2.3-6.1-5.3-8.4l2.3-3.8c1.5,0.8,3.1,2.3,4.6,3.8c3.1,4.6,3.8,9.9,1.5,16L91.3,119.7z"/>
	</g>
	<path class="st0" d="M124.1,109h13c1.5,0,2.3-0.8,2.3-2.3c0-1.5-0.8-2.3-2.3-2.3h-13c-1.5,0-2.3,0.8-2.3,2.3
		C121.8,107.4,122.6,109,124.1,109z"/>
	<path class="st0" d="M134.8,113.6h-9.2c-1.5,0-2.3,0.8-2.3,2.3c0,1.5,0.8,2.3,2.3,2.3h9.2c1.5,0,2.3-0.8,2.3-2.3
		C137.1,115.1,136.3,113.6,134.8,113.6z"/>
	<path class="st0" d="M133.3,123.5h-5.3c-1.5,0-2.3,0.8-2.3,2.3c0,1.5,0.8,2.3,2.3,2.3h5.3c1.5,0,2.3-0.8,2.3-2.3
		C135.5,124.2,134.8,123.5,133.3,123.5z"/>
	<path class="st0" d="M84.4,142.6c-0.8,0-0.8,0.8-1.5,0.8c0,0.8-0.8,0.8,0,1.5l2.3,11.5c0,1.5,1.5,2.3,2.3,1.5
		c1.5,0,2.3-1.5,1.5-2.3l-2.3-11.5l0,0C86.7,143.3,85.2,142.6,84.4,142.6L84.4,142.6z"/>
	<path class="st0" d="M31.7,100.6c0-0.8-0.8-1.5-0.8-2.3l0,0c0-0.8-0.8-0.8-0.8-1.5c-0.8,0-0.8-0.8-1.5,0c-0.8,0-0.8,0.8-1.5,0.8
		c0,0.8-0.8,0.8,0,1.5c0,0.8,0.8,1.5,0.8,2.3l0,0c0,1.5,1.5,1.5,3.1,1.5S31.7,101.3,31.7,100.6L31.7,100.6z"/>
	<path class="st0" d="M34,108.2c-0.8-1.5-1.5-1.5-3.1-1.5c-1.5,0.8-1.5,1.5-1.5,3.1c3.1,8.4,6.1,16,10.7,23.7
		c0.8,0.8,2.3,1.5,3.1,0.8c0.8-0.8,1.5-2.3,0.8-3.1C40.1,123.5,36.3,115.8,34,108.2L34,108.2z"/>
</g>
</svg>
