<?xml version="1.0" encoding="utf-8"?>
<!-- Generator: Adobe Illustrator 27.3.1, SVG Export Plug-In . SVG Version: 6.00 Build 0)  -->
<svg version="1.1" id="Layer_1" xmlns="http://www.w3.org/2000/svg" xmlns:xlink="http://www.w3.org/1999/xlink" x="0px" y="0px"
	 viewBox="0 0 24 24" style="enable-background:new 0 0 24 24;" xml:space="preserve">
<style type="text/css">
	.st0{fill:#FFFFFF;}
</style>
<path class="st0" d="M3.7,16.3l0.5,0.5l-0.6,0.6c0.3,0.4,0.5,0.8,0.8,1.1L18.5,4.4c-0.3-0.3-0.7-0.6-1.1-0.8l-0.6,0.6l-0.5-0.5
	l0.5-0.5C11.9,0.6,5.8,2.4,3.2,7.3c-1.6,3-1.6,6.5,0,9.5L3.7,16.3z M14.9,5.1l0.5,0.5L14,7l-0.5-0.5L14.9,5.1z M12.1,7.9l0.5,0.5
	l-1.4,1.4l-0.5-0.5L12.1,7.9z M9.3,10.7l0.5,0.5l-1.4,1.4l-0.5-0.5L9.3,10.7z M6.5,13.5L7,14l-1.4,1.4l-0.5-0.5L6.5,13.5z"/>
<path class="st0" d="M6.6,20.4l0.6-0.6l0.5,0.5l-0.5,0.5c4.9,2.6,10.9,0.8,13.5-4.1c1.6-3,1.6-6.5,0-9.5l-0.5,0.5l-0.5-0.5l0.6-0.6
	c-0.3-0.4-0.5-0.8-0.8-1.1L5.5,19.6C5.8,19.9,6.2,20.2,6.6,20.4z M18.4,8.6l0.5,0.5l-1.4,1.4L17,10L18.4,8.6z M15.6,11.4l0.5,0.5
	l-1.4,1.4l-0.5-0.5L15.6,11.4z M12.8,14.2l0.5,0.5l-1.4,1.4l-0.5-0.5L12.8,14.2z M10,17l0.5,0.5l-1.4,1.4l-0.5-0.5L10,17z"/>
</svg>
