<?xml version="1.0" encoding="utf-8"?>
<!-- Generator: Adobe Illustrator 27.3.1, SVG Export Plug-In . SVG Version: 6.00 Build 0)  -->
<svg version="1.1" id="_x32_" xmlns="http://www.w3.org/2000/svg" xmlns:xlink="http://www.w3.org/1999/xlink" x="0px" y="0px"
	 viewBox="0 0 64 64" style="enable-background:new 0 0 64 64;" xml:space="preserve">
<style type="text/css">
	.st0{fill:#FFFFFF;stroke:#FFFFFF;stroke-width:6.250000e-02;stroke-miterlimit:10;}
</style>
<g id="SVGRepo_bgCarrier">
</g>
<g id="SVGRepo_tracerCarrier">
</g>
<g id="SVGRepo_iconCarrier">
	<g>
		<path class="st0" d="M47,37.2h-3.8c-0.5,0-1,0.4-1,1v0.9c0,0.5,0.4,1,1,1H47c0.5,0,1-0.4,1-1v-0.9C48,37.6,47.6,37.2,47,37.2z"/>
		<path class="st0" d="M47.2,36.6c0-0.2-0.1-0.3-0.3-0.3h-0.4v-0.6c0-0.2-0.1-0.4-0.2-0.5C46.2,35.1,46,35,45.8,35h-1.7v0.5h1.7
			c0,0,0.1,0,0.1,0.1c0,0,0.1,0.1,0.1,0.1v0.6h-2.5c-0.2,0-0.3,0.1-0.3,0.3v0.3h4L47.2,36.6L47.2,36.6z"/>
		<path class="st0" d="M35,29.3c1.5,0,2.7-1.2,2.7-2.7c0-1.5-1.2-2.7-2.7-2.7c-1.5,0-2.7,1.2-2.7,2.7C32.3,28.1,33.5,29.3,35,29.3z"
			/>
		<path class="st0" d="M40.8,35.6l-3.6-1l-2.5-2.8c0,0-2.3-3.4-5-1.1L21.8,37l-4.6,0.4c-0.7,0.1-1.2,0.6-1.2,1.3v0.1
			c0,0.7,0.6,1.3,1.3,1.3h4.5c0.8,0,1.5-0.2,2.2-0.6l3.1-1.8l3.4-0.7l-0.9,1.6c-0.2,0.3-0.2,0.7,0,1c0.2,0.3,0.5,0.5,0.9,0.5h0.2
			c0.7,0,1.3-0.3,1.8-0.9l1.8-2.4l-0.9-0.4l0.2-0.5l1.1,0.4l1.3,0.5c0.2,0.1,0.5,0.2,0.7,0.2l3.4,0.7c0.3,0.1,0.6,0,0.9-0.2
			c0.3-0.2,0.4-0.4,0.5-0.7l0-0.1C41.7,36.3,41.3,35.7,40.8,35.6z"/>
	</g>
</g>
</svg>
