<?xml version="1.0" encoding="utf-8"?>
<!-- Generator: Adobe Illustrator 27.3.1, SVG Export Plug-In . SVG Version: 6.00 Build 0)  -->
<svg version="1.1" id="Layer_1" xmlns="http://www.w3.org/2000/svg" xmlns:xlink="http://www.w3.org/1999/xlink" x="0px" y="0px"
	 viewBox="0 0 633.5 633.5" style="enable-background:new 0 0 633.5 633.5;" xml:space="preserve">
<style type="text/css">
	.st0{fill:#FFFFFF;}
</style>
<g>
	<g>
		<path class="st0" d="M317.5,19L317.5,19c4.2,0,8.5,0,12.8,0.2c47.4,2.7,93.3,16.3,136.2,40.5c62.8,36.9,107.9,91.2,130.4,156.9
			c7.1,24.3,13.6,48,15.1,71.2l0,0.3l0,0.3c1.1,11.4,1.5,22.9,1.2,34.4l0,0.3l0,0.3c0.3,37.2-7.4,74-22.8,109.5
			c-14.9,34.2-36.1,65.3-63.2,92.6c-27.1,27.3-59.7,49.8-94.2,65c-36.2,16-73.8,24.1-111.8,24.1c-8.5,0-17-0.4-25.4-1.2
			c-5.4-0.6-11-1.5-17-2.5c-7.2-1.2-14.6-2.4-22.6-3.2c-22.1-4-41.9-11.9-62.9-20.3c-12.2-4.9-23.8-11.1-36.6-19.6
			c-38.1-25.4-64.4-51.3-87.8-86.4c-15.4-23.8-25.7-44.9-33.6-68.4c-11.3-37.2-16.1-67.5-14.9-95.2l0-0.4v-0.4
			c0-3.8-0.1-7.6-0.2-11.3c-0.2-9.9-0.5-19.3,1.2-27.9l0-0.2l0-0.2c0.8-4.2,1.4-8.3,2.1-12.3c1.8-11.2,3.5-21.8,7.1-31.9l0.1-0.3
			l0.1-0.3c4.3-12.8,8.3-25,13.7-37c17.9-39.8,42.4-73.2,75-102.1c3.9-3.1,7.7-6.1,11.4-9.1c8.2-6.6,16-12.9,24.2-18.3
			c22.9-14.8,45.5-25.5,71.2-33.6l0,0l0,0.2c28.4-9.1,58.8-13.6,90.7-13.6 M317.4-1.3c-32.8,0-65.4,4.6-97,14.7
			c-27.3,8.6-51.8,20.1-76.2,36c-12.9,8.6-24.5,18.7-37.4,28.8c-36,31.6-61.9,67.6-80.6,109.3c-5.8,12.9-10.1,25.9-14.4,38.8
			c-5.8,15.8-7.2,31.6-10.1,47.5c-2.9,14.4-1.4,28.8-1.4,43.2c-1.4,34.5,5.8,69,15.8,102.1c8.6,25.9,20.1,48.9,36,73.4
			c25.9,38.8,54.7,66.2,93.5,92.1c12.9,8.6,25.9,15.8,40.3,21.6c21.6,8.6,43.2,17.3,67.6,21.6c14.4,1.4,27.3,4.3,40.3,5.8
			c9.2,0.9,18.4,1.3,27.5,1.3c166.1,0,313.4-145.7,312.1-311.5c0.3-12.4-0.2-24.7-1.3-36.7c-1.6-25.7-8.8-51.6-16-76
			C591.6,138.5,542.7,81,476.5,42.2C430.5,16.3,381.6,1.9,331.2-1C326.6-1.2,322-1.3,317.4-1.3L317.4-1.3z"/>
	</g>
	<g>
		<path class="st0" d="M554.2,119.8c2.9,11.5,12.9,20.1,24.5,20.1c0.8-0.1,1.6-0.4,2.3-0.6c-2.5-3.8-5.1-7.5-7.8-11.1
			C566.3,130.6,558,127.5,554.2,119.8z"/>
		<path class="st0" d="M587.3,204.7c8.6-2.9,11.5-11.5,10.2-20.5c-1.2-10.6-8.1-20.3-16.2-23.9c8.8,8.5,11.7,22.9,3.1,31.5
			c-6.6,4-16.8,0.6-19.6-6.6C568.2,195.9,576.4,206.1,587.3,204.7z"/>
		<path class="st0" d="M564.8,185.1c-0.2-0.7-0.4-1.3-0.6-2C564.4,183.8,564.6,184.5,564.8,185.1z"/>
		<path class="st0" d="M630.3,270.3c-0.2-1.6-0.5-3.2-0.8-4.9c-0.9-0.6-1.9-1.1-2.9-1.5C628.2,265.8,629.4,268,630.3,270.3z"/>
		<path class="st0" d="M623.2,298.2c-5.8,2.9-12.9-1.4-15.8-7.2c0,5.8,4.3,11.5,7.2,15.8c5.9,5.9,13.7,4.1,18.7-1.5
			c-0.2-6.3-0.6-12.6-1.2-18.9c0-0.4-0.1-0.8-0.1-1.2C631,290.8,628.2,295.7,623.2,298.2z"/>
		<path class="st0" d="M604.5,223.4c0,4.3,2.9,5.8,4.3,10.1c2.6,6.2,9.6,9.6,15.9,8.7c-0.9-3.7-1.9-7.4-2.8-11
			c-2.1,0.8-3.5,0.9-5.9,0.9C610.3,230.6,607.4,227.7,604.5,223.4z"/>
		<path class="st0" d="M588.8,227c3.8,4.1,6.4,10.2,6.8,16.9c0.7,11.3-5.3,20.2-13.2,19.7c-4.7-0.3-9.1-3.9-12.1-9.3
			c2.3,11.3,9.4,19.9,17.3,20.2c9.2,0.4,16.2-10,15.5-23.1C602.5,240.1,596.4,230.2,588.8,227z"/>
		<path class="st0" d="M591.8,297.5c3.4,3.8,5.6,9.9,5.4,16.6c-0.2,11.5-6.9,21.2-14.9,21.7c-4.7,0.3-8.8-2.8-11.3-7.8
			c1.3,11.1,7.7,18.7,15.7,18.1c9.3-0.7,17.1-11.9,17.4-25.2C604.4,309.6,599.1,300,591.8,297.5z"/>
		<path class="st0" d="M626.8,331.3c2.2,2.9,3.6,5.8,5.1,10.1c1.4,12.9-4.3,28.8-20.1,25.9c-2.9-1.4-4.3-4.3-5.8-7.2
			c0,5.8,2.9,10.1,7.2,14.4c4.9,4.9,10.9,2.5,16.1-1c2.2-12.5,3.5-25.1,4-38C631.4,333.5,629.2,332,626.8,331.3z"/>
		<path class="st0" d="M589.1,368.2c3.2,3.3,4.9,8.9,4.3,15.4c-1,11-8.6,20.9-16.8,22.1c-4.9,0.8-8.9-1.7-11.1-6.1
			c0.6,10.1,6.7,16.6,15,15.3c9.7-1.5,18.4-12.8,19.6-25.5C601.1,378.5,596.4,369.8,589.1,368.2z"/>
		<path class="st0" d="M623.7,398.5c0.1-0.3,0.1-0.5,0.2-0.8c-0.3-0.1-0.7-0.2-1-0.3C623.2,397.8,623.5,398.1,623.7,398.5z"/>
		<path class="st0" d="M600.2,426.3c0,4.3,1.4,8.6,2.9,11.5c1.8,1.8,3.7,3,5.6,3.6c1.3-2.9,2.5-5.9,3.7-8.9
			C607.9,433.3,601.4,432.4,600.2,426.3z"/>
		<path class="st0" d="M581.8,435.1c3.2,2.9,4.8,7.9,4,13.9c-1.4,10.3-9.6,19.7-18.3,21.2c-5.1,0.9-9.3-1-11.5-4.9
			c0.3,9.1,6.6,14.6,15.4,13.1c10.2-1.8,19.7-12.6,21.3-24.5C594,443.9,589.3,436.1,581.8,435.1z"/>
		<path class="st0" d="M545.8,525.2c0.2,2.9,1.1,5.3,2.6,7.4c1-1.1,2-2.1,2.9-3.2C549.1,528.5,547.2,527.1,545.8,525.2z"/>
		<path class="st0" d="M575.3,499.9c0.4-0.6,0.9-1.2,1.3-1.9c-1.2-0.5-2.5-0.9-3.9-1C573.7,497.8,574.6,498.8,575.3,499.9z"/>
		<path class="st0" d="M469.1,54.7c-6.1-1-12-4.3-16.2-8.6c3.8,8.5,13.8,16,24,17.8c9.9,1.7,16.9-2.7,17.9-10.2
			c-3.4-2.3-6.8-4.5-10.3-6.7C483.1,52.7,477.2,56,469.1,54.7z"/>
		<path class="st0" d="M398.8,14.8c8.6,12.9,27.3,21.6,41.7,11.5c0.4-0.4,0.8-0.9,1.1-1.4c-4.5-1.9-8.9-3.7-13.4-5.4
			c-2.3,1.5-5.1,2.4-7.8,2.4C411.8,22,404.6,19.1,398.8,14.8z"/>
		<path class="st0" d="M552.8,158.7c2.9-4.3,1.4-8.6,1.4-13.5c-1.7-10.4-9.4-20.2-18.3-24c5.4,5.9,9.7,11.6,9.7,20.3
			c0,7.2-5.8,12.9-14.4,11.5c-7.2-1.4-10.1-5.8-14.4-10.1C521.1,155.8,539.8,173.1,552.8,158.7z"/>
		<path class="st0" d="M442,104c10.1,7.2,15.8,25.9,1.4,31.6c-7.2,1.4-12.9-1.4-20.1-2.9c-2.9-1.4-5.8-4.3-7.2-7.2
			c5.8,15.8,24.5,25.9,40.3,20.1c2.9-1.4,5.8-4.3,7.2-8.6c0-2.9,0-5.8,0.1-9c-1.7-10-10-19.3-20.1-23.6C443.4,104,442,104,442,104z"
			/>
		<path class="st0" d="M525.4,91.1c-7.2,0-15.8-2.9-20.1-10.1c4.3,12.9,17.3,23,30.2,20.1c4.2-0.8,6.4-4.1,7.5-8c-3-3-6.1-6-9.3-8.9
			C532.4,87.7,529.6,90.4,525.4,91.1z"/>
		<path class="st0" d="M488.4,122.7c12,2.3,19.6-5.6,17.4-17.1c-1.9-9.9-10.4-19.2-20.2-22.9c5,3.9,8.9,9.4,10,15.2
			c1.9,9.7-4.7,16.3-15.2,14.3c-6.2-1.1-12.3-5-16.7-9.9C467.7,112,478,120.8,488.4,122.7z"/>
		<path class="st0" d="M442,83.9c5.8-1.4,14.4-8.6,10.5-15.8c-1.6-8.4-9.4-16.3-19.1-20c-0.1-0.2-1.6-0.2-1.6-0.2
			c4.3,4.3,8.6,7.2,10.1,12.9c2.9,8.6-5.8,14.4-12.9,14.4c-8.6,0-15.8-2.9-23-8.6C413.2,78.1,427.6,85.3,442,83.9z"/>
		<path class="st0" d="M507.1,161.9c1.8,11.3-5,19.4-15.5,17.7c-6.2-1-12.3-5.2-16.7-11c4,11.6,14.2,21.4,24.5,23
			c12,1.8,19.7-7.8,17.7-21.1c-1.7-11.4-10.1-21.9-19.9-26C502.3,148.9,506.1,155.2,507.1,161.9z"/>
		<path class="st0" d="M548.4,299.7c-7.2,2.9-12.9-4.3-17.3-8.6c2.9,10.1,11.5,23,23,18.7c10.1-2.9,14.4-14.4,13.6-24.6
			c-0.2-12.1-6.4-22.6-14.5-25.8C564.3,269.5,562.8,292.5,548.4,299.7z"/>
		<path class="st0" d="M462,253.6c-1.3,0-1.3-1.4-2.7-1.4c15.8,11.5,12.9,36-2.9,46c-4.3,2.9-8.6,1.4-12.9,1.4
			c-7.2-1.4-11.5-5.8-14.4-11.5c1.4,15.8,15.8,27.3,31.6,24.5c7.2-1.4,13.4-6.1,16.4-13.3c2.5-6.1,3-10.3,2.8-16.5
			C479.6,269.6,472.2,258.1,462,253.6z"/>
		<path class="st0" d="M546.4,186.6c7.8,9.5,15,31.1-2.3,36.8c-7.2,1.4-12.9-4.3-17.3-10.1c2.9,14.4,21.6,30.2,33.1,15.8
			c4.3-5.8,2.9-11.5,3.4-16.9C562.1,200.9,554.9,190.5,546.4,186.6z"/>
		<path class="st0" d="M499.3,258c-6.1-0.4-12-4.6-16-10.9c3.1,13,12.6,23,22.8,23.5c11.9,0.6,20.4-11.2,19.4-26.1
			c-0.9-12.7-8.6-24-18.1-28c4.8,4.7,8.2,11.7,8.8,19.2C517.1,248.6,509.7,258.7,499.3,258z"/>
		<path class="st0" d="M424.7,200.4c4.3,18.7,27.3,33.1,43.2,20.1c5.8-5.8,8.6-12.9,6.4-20.9c-1.4-11.8-9.7-22.6-20-27.3
			c-0.8-0.7-0.8-0.7-2.3-0.7c10.1,7.2,14.4,18.7,10.1,30.2C454.9,217.7,433.4,213.4,424.7,200.4z"/>
		<path class="st0" d="M499.3,341.4c-6.1,0.4-11.6-3.1-15-8.9c1.8,12.7,10.3,21.5,20.5,20.6c11.9-1,21.7-14,22.2-29.1
			c0.4-13-6.1-23.9-15.3-26.9c4.3,4.4,7,11.4,6.9,19.2C518.2,329.5,509.7,340.7,499.3,341.4z"/>
		<path class="st0" d="M528.3,368.7c1.4,5.8,2.9,11.5,8.6,15.8c12.9,7.2,21.6-5.8,27.3-15.8c1.4-2.9,1.4-7.2,1.6-9.6
			c0.8-11.9-4.5-21.5-12.4-23.7c9.4,11.7,6.5,29-5,37.6c-2.9,1.4-7.2,4.3-11.5,2.9C534.1,374.5,529.7,373,528.3,368.7z"/>
		<path class="st0" d="M477.3,413.5c0.9,11,8.7,17.8,19,16c12-2,22.9-14.6,24.6-28.5c1.5-11.9-4.2-21.4-13.2-23
			c4,3.6,6.1,9.8,5.2,17c-1.5,12.2-10.9,23.2-21.4,24.8C485.5,420.8,480.3,418.3,477.3,413.5z"/>
		<path class="st0" d="M447.7,387.4c-2.9,1.4-7.2,0-10.1,0c-5.8-1.4-8.6-4.3-11.5-8.6c0,21.6,25.9,25.9,38.8,14.4
			c7.2-7.2,11.5-14.4,12.4-24.9c0.9-12.7-5.4-23.2-15.2-26.5c-0.1-0.4-1.5-0.4-1.5-0.4c11.5,11.5,8.6,28.8-1.4,38.8
			C456.4,383.1,452.1,386,447.7,387.4z"/>
		<path class="st0" d="M536.5,474.4c3.4,2.5,5,7.3,4,13.1c-1.8,9.8-10.8,19.1-20.3,20.9c-5.6,1.1-10.1-0.6-12.5-4.2
			c0.4,8,6.4,12.9,15,12c0.6-0.1,1.2-0.1,1.7-0.3c10.9-2,21.3-12.7,23.3-24.1C549.5,482.1,544.7,474.9,536.5,474.4z"/>
		<path class="st0" d="M444.1,492c-0.7,0.4-2.1,0.4-2.1,0.4c2.9,1.4,4.3,2.9,5.8,4.3c2.9,12.9-7.2,23-18.7,27.3
			c-2.9,1.4-7.2,1.4-10.1,1.4c-4.3-1.4-7.2-2.9-10.1-5.8c2.9,14.4,18.7,15.8,30.2,10.1c5.8-2.9,11.5-7.2,14.4-12.9
			c1.4-2.9,1.4-5.8,3.3-7.9C458.5,500,453.2,493.2,444.1,492z"/>
		<path class="st0" d="M547,408.5c11.5,12,0,29.3-11.5,36.5c-5.8,2.9-12.9,2.9-15.8-4.3c-1.4,7.2,2.9,11.5,7.2,14.4
			c7.2,2.9,15.8-1.4,21.6-7.2c4.3-5.8,8.6-11.5,9.7-19C559.6,417.9,554.9,409.6,547,408.5z"/>
		<path class="st0" d="M498,450.8c3.8,2.8,5.6,7.9,4.5,14.1c-1.9,10.5-11.7,20.4-22.2,22.3c-6.2,1.1-11.2-0.7-14-4.5
			c0.6,9.1,8.2,14.4,18.6,12.5c12-2.2,23.2-13.5,25.5-25.6C512.2,459.1,507,451.4,498,450.8z"/>
		<path class="st0" d="M417.5,457.9c4.3,17.3,27.3,18.7,37.4,8.6c2.9-4.3,8.6-5.8,10.1-11.5c1.4-2.9,1.4-7.2,3.1-10.1
			c1.7-10.9-3.9-19.4-13.4-21.3c0.2-0.2-1.3-0.2-1.3-0.2c11.5,11.5,2.9,31.6-10.1,37.4c-4.3,1.4-8.6,4.3-14.4,2.9
			C424.7,462.2,420.4,462.2,417.5,457.9z"/>
		<path class="st0" d="M486.2,513.1c3.8,2.3,5.7,6.7,4.6,12.1c-1.8,9.2-11.4,17.8-21.7,19.5c-6.1,1-11.1-0.6-13.9-3.9
			c0.8,7.8,8.4,12.5,18.6,10.9c11.9-1.9,22.9-11.9,25-22.6C500.6,520,495.2,513.4,486.2,513.1z"/>
		<path class="st0" d="M525.7,533.4c5.7,5.4,4.8,13.8,1,20.4c3.8-3.4,7.5-6.9,11.2-10.4C536.6,537.6,532,533.7,525.7,533.4z"/>
		<path class="st0" d="M496.6,560c1,6,4.4,9.5,8.8,11.2c3.3-2.5,6.6-5.1,9.8-7.7c-3,0.9-6.2,0.9-10,0.9
			C502.4,564.3,499.5,561.5,496.6,560z"/>
		<path class="st0" d="M475.7,567.9c13.7,9.4-2.1,29.5-15,29.5c-5.8,0-10.1,1.4-14.4-4.3c1.7,4.7,4.8,7.7,8.6,9.4
			c11.9-5.9,23.4-12.6,34.5-20C490.1,574.3,484.5,568.4,475.7,567.9z"/>
		<path class="st0" d="M433.9,548.8c-0.5-0.3-2-0.3-2-0.3c5.8,1.4,5.8,5.8,5.8,11.5c-1.4,11.5-11.5,15.8-21.6,17.3
			c-5.8,0-11.5,0-15.8-4.3c4.3,14.4,21.6,12.9,31.6,8.6c7.2-4.3,11.5-10.1,14.6-17.9C448,555.8,442.7,549.9,433.9,548.8z"/>
		<path class="st0" d="M425.9,599.6c-0.4-0.3-0.8-0.5-1.2-0.8C424.7,598.9,426.1,600.3,425.9,599.6z"/>
		<path class="st0" d="M396,624.9c0.6-0.2,1.1-0.3,1.7-0.4c-1.1-0.7-2.2-1.5-3.2-2.5C395,623,395.5,623.9,396,624.9z"/>
		<path class="st0" d="M425.9,599.6C425.9,599.6,425.9,599.6,425.9,599.6c2.1,1.6,3.3,4,4.5,6.4c0.4,2.8-0.1,5.4-1.1,7.8
			c3.2-1.2,6.3-2.6,9.4-3.9C437.5,604.6,432.7,600.7,425.9,599.6z"/>
		<path class="st0" d="M374.7,50.6c13.9,1.1,23.7-5.8,22.4-15.4C396,27,387.4,19.5,376.7,17c5.2,3,8.8,7.4,9.4,12.2
			c1,8.1-7.6,14-19.4,13.2c-7-0.5-13.4-3.1-17.5-6.9C352.3,43.3,362.8,49.7,374.7,50.6z"/>
		<path class="st0" d="M393,82.2c1.2,9.4-7.9,16.4-20.8,15.4c-7.6-0.6-14.6-3.8-19.2-8.3c3.5,9.3,15.1,17,28,18.2
			c15.1,1.3,25.6-7,23.9-18.2c-1.4-9.6-10.8-18.2-22.4-21.2C388.2,71.6,392.2,76.7,393,82.2z"/>
		<path class="st0" d="M396,160.1c-11.5,10.1-28.8,7.2-38.8-4.3c7.2,23,40.3,33.1,54.7,11.5c2.9-4.3,1.4-8.6,2-12.4
			c-1.4-12-11.6-22.4-24-26.1C400.3,137.1,406,152.9,396,160.1z"/>
		<path class="st0" d="M368.6,247.9c-2.9-1.4-4.3-4.3-7.2-7.2c4.3,18.7,25.9,31.6,44.6,23c6.4-3.2,9.3-7.2,12.9-12.9
			c2.4-3.5,3.4-9.4,2.1-14.7c-0.9-14.4-11.2-26.9-24.4-30.8c10.8,9.6,15.1,25.4,6.4,38.4C394.5,255.1,380.1,253.6,368.6,247.9z"/>
		<path class="st0" d="M400.1,296.8c6.3,5.1,10.2,13.2,10,22.2c-0.1,7.7-3.2,14.6-8.1,19.8c-4.9,5.1-11.6,8.4-19,8.7
			c-8.7,0.3-16.6-3.8-21.5-10.5c3,14.4,15.4,24.6,29.9,23.9c8.5-0.4,16.1-4.2,21.7-10.2c5.6-5.9,9.1-14,9.3-22.7
			C422.9,312.9,413.4,300.1,400.1,296.8z"/>
		<path class="st0" d="M358.4,425.4c2.5,11.7,13.7,19.6,27.5,18.5c8-0.6,15.4-4.2,21-9.4c5.6-5.2,9.4-12.2,10.2-19.8
			c1.3-13-7.2-23.7-19.9-25.8c5.8,4.2,9.1,11.1,8.4,18.9c-1.2,13.2-13.2,24.5-27.2,25.5C370.1,433.9,362.8,430.8,358.4,425.4z"/>
		<path class="st0" d="M379,510c14.7-1.3,27.6-11.8,29.3-23.9c1.5-10.4-6.2-18.6-18.2-19.8c5.3,3.1,8.3,8.5,7.5,14.7
			c-1.3,10.5-12.6,19.7-25.5,20.8c-7.6,0.6-14.2-1.8-18.2-5.9C356.2,505,366.4,511.1,379,510z"/>
		<path class="st0" d="M383,527.9c4.9,2.5,7.7,6.8,7,11.9c-1.1,8.7-11.5,16.3-23.3,17.2c-7,0.5-13-1.5-16.7-4.9
			c2.1,7.6,11.5,12.8,23.1,11.9c13.5-1,25.4-9.9,26.9-20C401.2,535.4,394,528.8,383,527.9z"/>
		<path class="st0" d="M377,579.4c4.6,2.3,7.3,6.2,6.8,10.8c-0.8,7.9-10.3,14.8-21.3,15.4c-6.5,0.3-12.1-1.6-15.6-4.8
			c2,7.1,10.9,12.1,21.8,11.6c12.7-0.7,23.6-8.9,24.6-18.1C394.3,586.3,387.3,580.3,377,579.4z"/>
		<path class="st0" d="M375.6,629.5c0.9-0.2,1.8-0.4,2.7-0.6c-1.7-0.6-3.5-1.1-5.5-1.3C373.9,628.2,374.8,628.8,375.6,629.5z"/>
		<path class="st0" d="M306.8,16.3c-4.3-1.4-8.6-1.4-11.5-5.8c7.2,14.4,31.6,17.3,43.2,7.2c1.4-2.9,5.8-5.8,4.2-10.4
			c-0.1-2.8-1.3-5.4-3.1-7.7c-2.4-0.2-4.9-0.4-7.4-0.5c0.3,0.8,0.5,1.7,0.5,2.8C331.2,14.8,316.8,17.7,306.8,16.3z"/>
		<path class="st0" d="M263.1,49.6c14-0.8,25.9-9.1,26.2-18.5c0.3-8-7.5-14.4-18.1-15.7c4.8,2.4,7.8,6.4,7.6,11.1
			c-0.5,8-10.5,15.1-22.4,15.8c-7,0.5-12.8-1.4-16.3-4.7C241.8,45.3,251.1,50.3,263.1,49.6z"/>
		<path class="st0" d="M317.7,137.6c0.9,0.1,1.8,0.1,2.6,0.1c16.6,0.3,29.3-9.9,28.6-22.3c-0.6-10.7-10.3-19.4-22.8-21.9
			c5.9,3.4,9.9,8.7,10.1,14.9c0.4,10.4-10.6,19-24.6,19c-8.3,0-15.6-3-20-7.7C294.2,129.3,304.6,136.7,317.7,137.6z"/>
		<path class="st0" d="M334.1,72.4c4.3-1.4,7.2-5.8,10.1-8.6c1.4-1.4,1.4-4.3,1.2-6.9c-0.5-8.5-9.3-15.8-20.6-17.8
			c15.1,8.9,7.9,27.6-7.9,27.6c-8.6,0-17.3,1.4-23-5.8C301,75.3,321.1,78.1,334.1,72.4z"/>
		<path class="st0" d="M258.2,106.3c15.4-1,28.5-11,28.9-22.1c0.4-9.5-8-16.7-19.6-18.1c5.2,2.7,8.5,7.2,8.1,12.7
			c-0.6,9.3-11.7,17.8-24.7,18.7c-7.6,0.6-13.9-1.6-17.6-5.5C235.1,101.1,245,107.2,258.2,106.3z"/>
		<path class="st0" d="M262.9,126.7c12.2,9,10.8,23.4,0.7,32c-8.6,7.2-17.3,10.1-27.3,7.2c-2.9-1.4-7.2-2.9-10.1-7.2
			c4.3,23,34.5,23,48.9,10.1c4.3-5.8,8.6-11.5,9.4-19.2C284.9,137.5,275.6,128.4,262.9,126.7z"/>
		<path class="st0" d="M305.3,299.7c-7.2-1.4-12.9-5.8-17.3-11.5c4.3,20.1,28.8,33.1,48.9,23c4.3-2.9,8.6-5.8,11.5-10.1
			c4.3-5.8,7.2-13.2,7.4-21c0-7.2-1.6-15-8.3-20.5c-4.6-5.7-11.1-9.9-18.5-11.7c10.8,7.2,15.1,23,9.4,34.5
			C332.7,295.3,319.7,302.5,305.3,299.7z"/>
		<path class="st0" d="M289.9,195.7c-0.1-0.4-0.3-0.7-0.4-1.1C289.6,195,289.7,195.4,289.9,195.7z"/>
		<path class="st0" d="M326.9,217.7c10.1-2.9,18.7-7.2,23-15.8c1.4-4.3,4.3-8.6,2.8-12.9c-0.6-13.3-11.2-24.5-25-27.5
			c10.7,7.3,15,20.3,7.8,31.8c-7.2,11.5-23,15.8-34.5,10.1c-4-2.7-9.3-2.9-11.2-7.5C294.6,210.9,310,220.5,326.9,217.7z"/>
		<path class="st0" d="M240.1,252c-8.8,0.3-16.2-3.7-20.6-10c2.5,13.9,14.4,24.1,29.5,23.8c8.8-0.2,17-4,23.1-10.1
			c6.1-6,9.9-14.2,10.1-23c0.3-15-10-26.8-23.9-29.4c6.3,4.4,10.3,11.8,10,20.5c-0.2,7.4-3.5,14.3-8.7,19.4
			C254.5,248.4,247.5,251.7,240.1,252z"/>
		<path class="st0" d="M265,358.6c5.8-2.9,10.1-8.6,12.9-14.4c1.4-4.3,4.3-10.1,4.3-14.4c-1.4-7.2-2.9-15.8-8.2-21.4
			c-4.6-5.8-11-10-18.3-11.8c16.4,13.1,13.5,40.4-5.2,49c-5.8,2.9-10.1,1.4-15.8,1.4c-7.2-1.4-12.9-5.8-15.8-11.5
			C223.3,355.8,246.3,368.7,265,358.6z"/>
		<path class="st0" d="M331.2,406.1c7.2-2.9,14.4-7.2,18.7-15.8c2.9-5.8,4.3-11.5,4.3-18.7c0-5.8-4.3-10.1-7-15
			c-4.4-5.4-10.8-9.4-18.2-11c12.2,10.2,15.1,26,6.5,37.5c-4.3,5.8-11.5,10.1-18.7,11.5c-5.8,0-11.5,1.4-15.8-1.4
			c-4.3-2.9-8.6-4.3-11.5-8.6C295.3,401.8,314,411.9,331.2,406.1z"/>
		<path class="st0" d="M270.8,442.1c2.9-1.4,7.2-4.3,8.6-7.2c2.3-3.5,3.9-9.1,4-15.3c-0.4-13.3-11.3-25.3-25.5-28.9
			c11.4,6.9,15.7,21.2,8.5,32.7c-10.1,15.8-31.6,11.5-43.2,0C232,440.6,252.1,450.7,270.8,442.1z"/>
		<path class="st0" d="M316.9,540.7c0.8,0,1.5,0.1,2.3,0c14.5-0.3,26.8-9,27.5-19.8c0.6-9.2-8.1-17-20.5-18.8
			c5.7,3.1,9.2,8.1,9,13.6c-0.4,9.4-10.9,16.9-23.6,17c-7.5,0-14.2-2.6-18.5-6.6C296,534,305.5,540,316.9,540.7z"/>
		<path class="st0" d="M337,478c7.2-4.3,12.9-11.5,13.5-20.5c0.6-11.9-9-21.9-22.7-24.4c17.8,10.4,9.2,33.4-6.7,37.7
			c-4.4,1.4-10.1,2.9-14.4,1.4c-5.8-1.4-11.5-2.9-15.8-8.6C296.7,482.4,321.1,485.2,337,478z"/>
		<path class="st0" d="M286.1,491.4c-0.4-10.3-10.5-19.8-23.5-22.9c6.2,4,10.5,9.9,10.8,16.1c0.6,10.5-9.5,18.1-22.4,17.1
			c-7.6-0.6-14.6-4-19.4-8.8c3.9,9.6,15.3,17.3,28.1,18.2C274.7,512.1,286.6,503.4,286.1,491.4z"/>
		<path class="st0" d="M288.6,548.5c-0.4-8.4-9.4-16.1-21.3-18.6c5.7,3.2,9.5,8,9.8,13.1c0.5,8.6-8.7,14.8-20.6,14.1
			c-7-0.4-13.4-3.3-17.7-7.3c3.5,8.1,13.9,14.5,25.6,15.2C278.1,565.6,289,558.3,288.6,548.5z"/>
		<path class="st0" d="M324.9,557.2c3.5,1.4,6.4,4.2,7.8,7.1c2.9,14.4-14.4,21.6-25.9,18.7c-4.3-1.4-8.6-1.4-11.5-5.8
			c7.2,17.3,28.8,17.3,43.2,7.2c2.9-2.9,4.3-7.2,5.2-11.2C344,565.3,336.1,558.8,324.9,557.2z"/>
		<path class="st0" d="M271.1,580.9c5.2,2.8,8.6,7,8.8,11.6c0.4,7.7-8.3,13.7-19.3,13.1c-6.5-0.3-12.4-2.9-16.3-6.5
			c3,7.5,12.6,13.4,23.5,13.9c12.7,0.5,22.9-6.5,22.6-15.5C290.2,589.8,281.9,583,271.1,580.9z"/>
		<path class="st0" d="M341.3,620.9c0.3-7.7-7.1-14-17.5-15.5c3.1,2.1,6,3.5,7.4,6.4c2.9,8.6-5.8,17.3-14.4,18.7
			c-7.2,1.4-15.8,0-21.6-5.8c2.4,4,5.6,7.1,9.3,9.4c9.4,0.6,18.7,0.6,27.9,0.3c1.1-0.7,2.1-1.6,3-2.5
			C337,629.1,342.7,626.2,341.3,620.9z"/>
		<path class="st0" d="M277.2,631c1.8,0.3,3.6,0.6,5.4,0.9c-2.6-1.5-5.6-2.7-8.8-3.3C275,629.3,276.2,630.1,277.2,631z"/>
		<path class="st0" d="M232,20.6c2.9-2.9,5.8-7.2,6.7-10.9c0.1-0.5,0.1-1,0.1-1.4c-3.9,1-7.8,2-11.7,3.2c-4.9,8-17,11.7-26.6,10.6
			c-0.9,0-1.8-0.2-2.7-0.5c-0.7,0.3-1.5,0.6-2.2,0.9C202.9,32.8,223.1,29.5,232,20.6z"/>
		<path class="st0" d="M159,61.7c12.2-2,23.9-11.8,25.7-21.6c0.8-4.7-0.7-8.6-3.8-11.2c-1.7,0.8-3.5,1.7-5.2,2.5
			c0.4,1.5,0.5,3.1,0.2,4.9c-1.5,8.5-11.4,16.8-21.7,18.5c-5.7,0.9-10.2-0.4-13-3.2c-0.2,0.1-0.3,0.2-0.5,0.3
			C141.8,59.1,149,63.4,159,61.7z"/>
		<path class="st0" d="M173,131.4c2.9,15.8,21.6,17.3,33.1,11.5c5.8-2.9,8.6-7.2,12.9-10.1c4.3-4.3,4.3-8.6,5.7-13.7
			c1.3-10.7-6.2-18.2-17.3-19c1.5,1,4.4,2.4,5.8,5.3c5.8,11.5-4.3,23-14.4,27.3c-5.8,2.9-11.5,2.9-17.3,2.9
			C178.7,135.7,174.4,134.2,173,131.4z"/>
		<path class="st0" d="M214.7,79.6c5.8-2.9,10.1-7.2,14.4-11.5c2.9-2.9,4.3-5.8,3.4-8c1.1-8.6-6-14.9-16.4-15.6
			c2.9,2,4.4,3.5,5.8,6.4c2.9,10.1-4.3,17.3-12.9,21.6c-8.6,2.9-17.3,4.3-24.5-1.4C187.4,83.9,204.6,83.9,214.7,79.6z"/>
		<path class="st0" d="M147.7,120.3c12.5-2.2,24.8-13.6,26.9-25c1.8-9.7-4.4-16.3-14.1-16.7c4.1,2.3,6.2,6.7,5.1,12.4
			c-1.8,9.6-12.2,19.2-22.7,21.2c-6.2,1.1-11.1-0.7-13.6-4.4C129.8,116.8,137,122.3,147.7,120.3z"/>
		<path class="st0" d="M117.8,173.6c0.6,10.6,8.1,17.6,18.9,16c6.3-0.9,12.5-4.7,17.4-9.9c4.9-5.2,8.5-12,9.5-18.8
			c1.7-11.8-4.7-19.9-14.6-20.6c4.2,2.8,6.3,8.2,5.3,15c-1.8,11.6-12.1,22.6-22.8,24.3C125.3,180.6,120.4,178.1,117.8,173.6z"/>
		<path class="st0" d="M196,309.7c4.3-2.9,7.2-5.8,10.1-8.6c4.3-5.8,5.8-12.9,6.1-19.8c0.3-15.3-8.9-27.5-21.3-30.1
			c16.6,12.5,9.4,42.7-10.7,48.5c-5.8,1.4-11.5,0-15.8-2.9c-2.9-1.4-2.9-5.8-5.8-7.2C158.6,308.3,180.2,318.4,196,309.7z"/>
		<path class="st0" d="M177.3,211.9c-5.8-1.4-11.5-2.9-14.4-7.2c1.4,17.3,20.1,23,34.5,15.8c5.8-2.9,8.6-7.2,12.9-10.1
			c2.9-5.8,7.2-11.5,6.4-18.2c1.2-13.1-7-22.9-18.8-24.2C216.1,184.6,197.4,213.4,177.3,211.9z"/>
		<path class="st0" d="M135.6,253.6c-4.3,2.9-10.1,5.8-15.8,4.3c-5.8-1.4-7.2-4.3-10.1-8.6c1.4,12.9,11.5,24.5,24.5,20.1
			c12.9-4.3,20.1-17.3,20.9-30c1-13.8-6-24.1-16.2-25.7C150,224.9,147.1,243.6,135.6,253.6z"/>
		<path class="st0" d="M131.3,354.2c12.6,1,22.6-11.3,22.1-27.9c-0.5-14.2-8.6-26.2-19-29.3c4.8,4.6,8,12,8.2,20.3
			c0.3,14.1-8.1,24.8-18.7,24.1c-6.2-0.4-11.7-4.5-15.3-10.5C111.4,343.4,120.5,353.3,131.3,354.2z"/>
		<path class="st0" d="M207.5,394.6c4.3-5.8,8.6-11.5,6.8-20.8c-0.8-14.5-11-27.4-23.7-31.2c14,10.3,15.4,33.3,1,43.3
			c-4.3,2.9-10.1,1.4-14.4,1.4c-7.2-1.4-12.9-5.8-15.8-11.5C165.8,394.6,190.2,410.4,207.5,394.6z"/>
		<path class="st0" d="M139.8,431.6c12.6,2,21.7-7.7,20-22.4c-1.5-12.6-10.7-24.5-21.4-28.5c5.2,4.9,9.1,12,10,19.5
			c1.5,12.7-6.2,21.2-16.8,19.6c-6.3-1-12.1-5.2-16.1-11C119.2,420.3,129,429.9,139.8,431.6z"/>
		<path class="st0" d="M216.1,534.1c5.8-1.4,10.1-4.3,12.9-8.6c1.4-2.9,0-5.8,0.4-8c-1.2-9.3-11-18.5-22.7-22.1c3.6,2.7,5,4.2,7.9,7
			c7.2,10.1,1.4,21.6-11.5,23c-4.3,1.4-8.6-2.9-12.9-2.9c-4.3-1.4-5.8-4.3-8.6-7.2C187.4,528.4,201.8,537,216.1,534.1z"/>
		<path class="st0" d="M203.2,475.2c10.1-1.4,20.1-10.1,18.3-21.4c-1.3-11.9-11.6-23.1-24.1-27.1c10.1,8.2,17.3,22.6,7.2,32.7
			c-10.1,8.6-25.9,4.3-34.5-7.2C175.9,465.1,188.8,475.2,203.2,475.2z"/>
		<path class="st0" d="M170.3,479.9c-1.8-10.4-11.2-20.8-22-25c5.4,4.5,9.5,10.7,10.6,16.9c1.9,10.6-5.4,17.3-16,15.4
			c-6.2-1.1-12.1-5-16.4-10.1c4,9.9,14,18.5,24.6,20.4C163.6,499.7,172.4,492,170.3,479.9z"/>
		<path class="st0" d="M159.9,517.2c5.3,3.9,9.2,9.2,10.2,14.4c1.7,9-5.6,14.7-15.9,13.1c-6.1-1-11.9-4.4-16-8.9
			c3.8,8.7,13.5,16.2,23.9,17.8c12.2,1.9,20.8-4.8,18.9-15.1C179.4,529.7,170.3,520.9,159.9,517.2z"/>
		<path class="st0" d="M215.6,551.8c3.4,2.5,7.7,5.4,9.2,9.7c2.9,11.5-10.1,18.7-20.1,15.8c-4.3-1.4-10.1-2.9-12.9-7.2
			c7.2,15.8,31.6,23,43.2,7.2c1.4-2.9,1.4-4.3,1.6-6.7C235.4,562.5,226.5,554.7,215.6,551.8z"/>
		<path class="st0" d="M189.6,590.3c-1.2-8.2-9.6-16-19.7-19.2c5,3.4,8.7,8.1,9.4,13c1.1,7.2-4.4,12.5-12.6,13
			c4.7,2.5,9.4,4.8,14.4,6.9C187,601.7,190.6,596.6,189.6,590.3z"/>
		<path class="st0" d="M222.3,601.6c2.4,1.6,6.7,4.5,8.2,7.4c1.2,4.9,0.1,9.3-2.4,12.5c4,1.2,8.1,2.3,12.2,3.3
			c0.5-1.7,0.7-3.5,1.2-5.7C240.7,611.2,232.6,604.1,222.3,601.6z"/>
		<path class="st0" d="M116.9,145.7c1.4-2.9,1.4-7.2,3.2-10.5c1.9-10.6-3.4-17.8-12.1-18.2c11.8,11.4,0.3,28.7-11.2,34.4
			c-4.3,1.4-7.2,1.4-11.5,1.4c-2.9,0-4.3-2.9-5.8-4.3c1.4,2.9,1.4,5.8,1.4,7.2C92.4,170.2,109.7,157.2,116.9,145.7z"/>
		<path class="st0" d="M98.2,98.3c15.8,2.9,30.2-8.6,33.5-23.5c1.1-5.7-0.6-10.4-4.3-13.1c-1.2,0.9-2.3,1.8-3.5,2.8
			c0,0.2,0.1,0.5,0.1,0.8c1.4,11.5-7.2,20.1-15.8,24.5c-4.3,1.4-7.2,1.4-11.5,1.4c-1.1,0-2.2-0.2-3.2-0.7c-0.8,0.8-1.6,1.6-2.4,2.4
			C92.3,95.5,94.7,97.4,98.2,98.3z"/>
		<path class="st0" d="M82,112.6c0.7-3.7,0.4-6.9-0.6-9.6c-2.3,2.5-4.6,5.1-6.8,7.7c-1.7,6.4-6.5,12.3-12.4,15.5
			c-2.5,3.4-5,6.8-7.4,10.3C67.9,139.5,78.3,124.8,82,112.6z"/>
		<path class="st0" d="M50.5,203c9.7-1.5,19.2-13.5,21-26.4c1.6-11.1-3.2-18.9-11-19.7c3.2,2.8,4.9,7.9,3.9,14.4
			c-1.5,10.9-9.6,21-17.9,22.3c-4.9,0.8-8.8-1.6-11-6C36.2,197.6,42.2,204.2,50.5,203z"/>
		<path class="st0" d="M82.4,299.7c-2.9,1.4-7.2,0-10.1-1.4s-4.3-4.3-5.8-7.2c0,12.9,12.9,25.9,25.9,18.7
			c8.6-5.8,12.9-15.8,11.7-25.9c0.3-13.2-6-23.8-14.6-25.9C101.1,270.9,96.7,292.5,82.4,299.7z"/>
		<path class="st0" d="M3.2,308.3c7.2,4.3,14.4,0,18.7-5.8c4.3-7.2,2.9-15.8,3.1-22.9c-1.3-8.5-5.8-15-11.6-16.6
			c9.9,10.7,5.6,33.7-8.8,36.6c-1.6,0-3.2-0.6-4.7-1.5c0,2.4,0.1,4.9,0.1,7.3C1.1,306.5,2.1,307.4,3.2,308.3z"/>
		<path class="st0" d="M72.3,226.3c5.8,8.6,15.8,10.1,23,4.3c8.6-7.2,12.9-15.8,14.1-25.5c1.5-12.1-4-20.9-12.6-21.9
			c11.4,14.3,1.3,40.2-15.9,40.2c-2.9-1.4-10.1,0-10.1-7.2C70.8,219.1,70.8,223.4,72.3,226.3z"/>
		<path class="st0" d="M45.4,274.1c9.4-0.4,17.8-12.3,18.7-26.4c0.8-12.1-4.3-21.3-11.9-22.8c3.3,3.4,5.1,9.2,4.7,16.2
			c-0.8,11.9-8,22-16,22.5c-4.7,0.3-8.7-2.7-11.1-7.5C31,266.7,37.3,274.4,45.4,274.1z"/>
		<path class="st0" d="M53.6,345.7c7.2-4.3,10.1-14.4,9.2-23.1c-0.4-12.2-6.3-22.5-13.9-25.2c7.6,10.9,9.1,26.7-1,36.8
			c-5.8,4.3-15.8,0-18.7-7.2C29.1,338.5,42.1,351.4,53.6,345.7z"/>
		<path class="st0" d="M96.7,386c7.2-2.9,10.1-12.9,9.7-21.7c-0.9-12.9-8.3-24.2-17.2-27.6c10.4,10.5,10.4,26.3,3.2,36.4
			c-7.2,7.2-18.7,1.4-23-7.2C72.3,378.8,83.8,391.7,96.7,386z"/>
		<path class="st0" d="M60.8,416.2c7.2-2.9,8.6-12.9,7.3-20.5c-1.3-11.5-8.2-22.1-16.2-25.5c7.5,10,11.8,30.2-1.1,35.9
			c-7.2,2.9-12.9-5.8-17.3-10.1C36.3,409,47.8,419.1,60.8,416.2z"/>
		<path class="st0" d="M127.2,501.9c-1.9-9.7-10.4-19.4-20-23.4c2.4,2.4,5.3,3.8,6.7,6.7c4.3,7.2,5.8,18.7-2.9,23
			c-8.6,2.9-17.3-2.9-23-10.1c4.3,12.9,17.3,23,31.6,20.1c2.9,0,4.3-2.9,5.8-4.3C128.4,509.7,126.9,506.8,127.2,501.9z"/>
		<path class="st0" d="M112.6,453.6c4.3-4.3,2.9-10.1,3-15.5c-1.8-11.4-10-22.3-19.3-26.3c9.1,10.1,14.9,27.4,1.9,34.6
			c-2.9,1.4-5.8,0-8.6,0c-4.3-2.9-10.1-5.8-12.9-10.1C82.4,450.7,98.2,466.5,112.6,453.6z"/>
		<path class="st0" d="M59.9,438.4c4.3,4.2,7.6,10.2,8.6,16.3c1.7,10.4-4.1,17.2-12.9,15.6c-5.2-1-10.1-4.6-13.6-9.5
			c3.3,9.8,11.6,18,20.5,19.6c10.3,1.9,17.2-5.9,15.2-17.9C76,452.3,68.4,442.3,59.9,438.4z"/>
		<path class="st0" d="M88.5,522.6c-1.7-9.4-9.5-18.5-18.4-22.2c4.5,3.9,8,9.4,8.9,15c0.7,4-0.1,7.5-1.8,10c2.8,3.2,5.7,6.4,8.6,9.4
			C88.3,531.9,89.4,527.6,88.5,522.6z"/>
		<path class="st0" d="M135.6,568.7c1.4-2.9,2.9-5.8,2.5-10.7c-1.6-8.8-10-17.4-19.5-21c4.1,4.3,8.4,8.6,9.8,14.4
			c2.2,7.5-3.7,11.8-10.5,12.9c3.7,2.9,7.5,5.8,11.4,8.7c0.2,0,0.4,0,0.5,0C132.7,573,134.1,570.1,135.6,568.7z"/>
		<path class="st0" d="M26.3,227.7c1.4-4.3,4.3-7.2,2.9-11.3c0.2-2.1,0.2-4.1,0-5.9c-1.2-4.6-2.3-10.9-7-13.4
			c-0.5,1.3-1,2.5-1.5,3.8c4.8,10.6-0.3,24.8-10.3,29.5c-1.2,3.8-2.2,7.7-3.1,11.5C14.4,243.8,22.9,236.6,26.3,227.7z"/>
		<path class="st0" d="M21.9,374.5c4.3-4.3,5.8-11.5,5.2-18.3c-0.1-2.1-0.4-4.2-0.9-6.2c-2.8-7.1-5.7-14.3-12.9-17.2
			c8.6,8.6,10.1,30.2-2.9,34.5c-2.4,0.5-4.7,0.3-6.7-0.4c0.4,2.6,0.9,5.2,1.3,7.7C10.1,378.4,16.2,379.5,21.9,374.5z"/>
		<path class="st0" d="M33.5,423.4c-0.2-2-0.7-4-1.3-5.9c-3.1-7.1-7.4-14.3-14.6-18.6c7.2,7.2,11.5,23,2.9,31.6
			c-0.1,0-0.1,0.1-0.2,0.1c1.5,4,3.1,7.9,4.7,11.7c1.9-0.6,3.8-1.6,5.5-3.2C33.4,434.9,34.9,429.1,33.5,423.4z"/>
	</g>
</g>
</svg>
